<svg xmlns="http://www.w3.org/2000/svg" xmlns:xlink="http://www.w3.org/1999/xlink" xmlns:ifc="http://www.ifcopenshell.org/ns" width="300mm" height="300mm" viewBox="0 0 300 300">
    <defs>
        <marker id="arrowend" markerWidth="10" markerHeight="7" refX="10" refY="3.5" orient="auto">
          <polygon points="0 0, 10 3.5, 0 7"/>
        </marker>
        <marker id="arrowstart" markerWidth="10" markerHeight="7" refX="0" refY="3.5" orient="auto">
          <polygon points="10 0, 0 3.5, 10 7"/>
        </marker>
    </defs>
    <g ifc:name="Elevation MY STOREY PLAN" class="section" ifc:plane="[[1.000000,0.000000,0.000000,0.000000],[0.000000,1.000000,0.000000,0.000000],[0.000000,0.000000,1.000000,1.600000],[0.000000,0.000000,0.000000,1.000000]]" ifc:matrix3="[[20.000000,0.000000,47.939177],[0.000000,20.000000,225.301263],[0.000000,0.000000,1.000000]]">
        <g id="product-d5b35bff-c6eb-43d3-a48e-e73c4d959bb0" class="IfcWall material-null projection" ifc:name="Wall" ifc:guid="3Lirl$nkj3qwIEvpnDbPkm">
            <path d="M160.539,124.793 L160.539,82.7012"/>
            <path d="M163.539,124.793 L160.539,124.793"/>
            <path d="M163.539,82.7012 L163.539,124.793"/>
            <path d="M160.539,82.7012 L163.539,82.7012"/>
        </g>
    <g id="product-0fe7ef69-d8b9-40b3-ada9-7be37426aa6a" class="IfcWall material-null projection" ifc:name="Wall" ifc:guid="0Fv_zfsBb0iwsfU_Dq9gfg">
            <path d="M120.539,82.7011 L120.539,121.101"/>
            <path d="M118.939,82.7011 L120.539,82.7011"/>
            <path d="M118.939,121.101 L118.939,82.7011"/>
            <path d="M120.539,121.101 L118.939,121.101"/>
        </g>
        <g id="product-21fad208-3d2f-40e7-a624-f141be227bf5" class="IfcWall material-null projection" ifc:name="Wall" ifc:guid="0X_j88FIz0vwOayK6_8dlr">
            <path d="M141.899,122.701 L141.899,121.101"/>
            <path d="M141.899,121.101 L118.939,121.101"/>
            <path d="M118.939,121.101 L118.939,122.701"/>
            <path d="M141.899,122.701 L118.939,122.701"/>
            <path d="M159.899,121.101 L159.899,122.701"/>
            <path d="M160.539,122.701 L159.899,122.701"/>
            <path d="M160.539,121.101 L160.539,122.701"/>
            <path d="M160.539,121.101 L159.899,121.101"/>
        </g>
        <g id="product-5a6198a3-9179-4eec-b3bf-8821cc5d5832" class="IfcWall material-null projection" ifc:name="Wall" ifc:guid="1QOPYZaNbExBE$Y27CNLWo">
            <path d="M140.905,82.7011 L140.905,121.101"/>
            <path d="M139.305,82.7011 L140.905,82.7011"/>
            <path d="M139.305,121.101 L139.305,82.7011"/>
            <path d="M140.905,121.101 L139.305,121.101"/>
        </g>
        <g id="product-2427011e-989a-4761-af60-fedae6b1a6a5" class="IfcWall material-null projection" ifc:name="Wall" ifc:guid="0a9m4Uc9f7OQzW$jhciQQb">
            <path d="M160.539,185.901 L160.539,165.901"/>
            <path d="M163.539,185.901 L160.539,185.901"/>
            <path d="M163.539,165.901 L163.539,185.901"/>
            <path d="M160.539,165.901 L163.539,165.901"/>
        </g>
        <g id="product-f629bde8-dc68-48be-9a7f-d7e85628d59d" class="IfcWall material-null projection" ifc:name="Wall" ifc:guid="3sARtet6X8lff$r_XMADMT">
            <path d="M47.9391,225.301 L47.9392,82.7012"/>
            <path d="M55.3391,225.301 L47.9391,225.301"/>
            <path d="M55.3392,82.7012 L55.3391,225.301"/>
            <path d="M47.9392,82.7012 L55.3392,82.7012"/>
        </g>
        <g id="product-eda8834f-8308-4b9a-85f0-a54d9cdc9169" class="IfcWall material-null projection" ifc:name="Wall" ifc:guid="3jg8DFWmXBceNmfKsSt95f">
            <path d="M134.368,82.7012 L122.368,82.7012"/>
            <path d="M134.368,75.3012 L122.368,75.3012"/>
            <path d="M134.368,75.3012 L134.368,82.7012"/>
            <path d="M134.368,82.7012 L144.708,82.7012"/>
            <path d="M144.708,82.7012 L144.708,75.3012"/>
            <path d="M134.368,75.3012 L144.708,75.3012"/>
            <path d="M156.708,82.7012 L144.708,82.7012"/>
            <path d="M156.708,75.3012 L144.708,75.3012"/>
            <path d="M156.708,75.3012 L156.708,82.7012"/>
            <path d="M156.708,82.7012 L203.459,82.7012"/>
            <path d="M203.459,82.7012 L203.459,75.3012"/>
            <path d="M156.708,75.3012 L203.459,75.3012"/>
            <path d="M231.459,82.7013 L203.459,82.7012"/>
            <path d="M231.459,75.3013 L203.459,75.3012"/>
            <path d="M251.939,82.7013 L251.939,75.3013"/>
            <path d="M231.459,75.3013 L251.939,75.3013"/>
            <path d="M231.459,75.3013 L231.459,82.7013"/>
            <path d="M231.459,82.7013 L251.939,82.7013"/>
            <path d="M99.5595,75.3012 L99.5595,82.7012"/>
            <path d="M99.5595,82.7012 L122.368,82.7012"/>
            <path d="M122.368,82.7012 L122.368,75.3012"/>
            <path d="M99.5595,75.3012 L122.368,75.3012"/>
            <path d="M72.4533,82.7012 L60.4533,82.7012"/>
            <path d="M72.4533,75.3012 L60.4533,75.3012"/>
            <path d="M81.5595,82.7012 L81.5595,75.3012"/>
            <path d="M72.4533,75.3012 L81.5595,75.3012"/>
            <path d="M72.4533,75.3012 L72.4533,82.7012"/>
            <path d="M72.4533,82.7012 L81.5595,82.7012"/>
            <path d="M47.9392,82.7012 L60.4533,82.7012"/>
            <path d="M60.4533,82.7012 L60.4533,75.3012"/>
            <path d="M47.9392,75.3012 L60.4533,75.3012"/>
            <path d="M47.9392,82.7012 L47.9392,75.3012"/>
        </g>
        <g id="product-ba09ee0e-d2a3-4205-8c86-80e84e65cb8d" class="IfcWall material-null projection" ifc:name="Wall" ifc:guid="2w2UuEqgD21Oo6WEXEPSkD">
            <path d="M167.939,214.507 L160.539,214.507"/>
            <path d="M160.539,214.507 L160.539,217.901"/>
            <path d="M160.539,217.901 L167.939,217.901"/>
            <path d="M167.939,214.507 L167.939,217.901"/>
            <path d="M160.539,196.507 L167.939,196.507"/>
            <path d="M167.939,193.301 L167.939,196.507"/>
            <path d="M160.539,193.301 L167.939,193.301"/>
            <path d="M160.539,193.301 L160.539,196.507"/>
        </g>
        <g id="product-d92b9332-1b24-4bf9-b936-83a4b9e48219" class="IfcWall material-null projection" ifc:name="Wall" ifc:guid="3PAvCo6oHB_RasWwIvv88P">
            <path d="M195.869,193.301 L195.869,185.901"/>
            <path d="M195.869,185.901 L160.539,185.901"/>
            <path d="M160.539,185.901 L160.539,193.301"/>
            <path d="M195.869,193.301 L160.539,193.301"/>
            <path d="M223.869,185.901 L223.869,193.301"/>
            <path d="M251.939,193.301 L223.869,193.301"/>
            <path d="M251.939,185.901 L251.939,193.301"/>
            <path d="M251.939,185.901 L223.869,185.901"/>
        </g>
        <g id="product-9ddd8c65-0587-466a-b0e3-e78b0adc9d02" class="IfcWall material-null projection" ifc:name="Wall" ifc:guid="2TtOnb1OT6Qh3ZvuiAt9q2">
            <path d="M251.939,82.7013 L251.939,185.901"/>
            <path d="M244.539,82.7013 L251.939,82.7013"/>
            <path d="M244.539,185.901 L244.539,82.7013"/>
            <path d="M251.939,185.901 L244.539,185.901"/>
        </g>
        <g id="product-cdbba013-9615-43bf-925a-affca94f9d8e" class="IfcWall material-null projection" ifc:name="Wall" ifc:guid="3Dkw0JbXL3lv9Qh$ofJvsE">
            <path d="M83.0936,217.901 L111.094,217.901"/>
            <path d="M83.0936,225.301 L111.094,225.301"/>
            <path d="M55.3391,217.901 L55.3391,225.301"/>
            <path d="M83.0936,225.301 L55.3391,225.301"/>
            <path d="M83.0936,225.301 L83.0936,217.901"/>
            <path d="M83.0936,217.901 L55.3391,217.901"/>
            <path d="M167.939,217.901 L111.094,217.901"/>
            <path d="M111.094,217.901 L111.094,225.301"/>
            <path d="M167.939,225.301 L111.094,225.301"/>
            <path d="M167.939,217.901 L167.939,225.301"/>
        </g>
        <g id="product-58286c57-611d-4225-8adf-bd815984c5a2" class="IfcSlab material-null projection" ifc:name="Slab" ifc:guid="1OA6nNOHr29OhVlO5PXCMY">
            <path d="M99.5595,75.3013 L81.5595,75.3013"/>
            <path d="M251.939,225.301 L251.939,193.301"/>
            <path d="M55.3391,225.301 L251.939,225.301"/>
            <path d="M47.9392,75.3013 L47.9392,82.7012"/>
        </g>
        <g id="product-cc06fc21-6dbc-44c5-bcc7-7aa17846b246" class="IfcDoor material-null projection" ifc:name="Door" ifc:guid="3C1lmXRRn4nRp7Ug5uHh96">
            <path d="M223.369,178.801 L223.369,192.301"/>
            <path d="M222.669,178.801 L223.369,178.801"/>
            <path d="M222.669,192.301 L222.669,178.801"/>
            <path d="M223.369,192.301 L222.669,192.301"/>
            <path d="M196.369,178.801 L196.369,192.301"/>
            <path d="M197.069,178.801 L196.369,178.801"/>
            <path d="M197.069,192.301 L197.069,178.801"/>
            <path d="M196.369,192.301 L197.069,192.301"/>
            <path d="M222.869,193.301 L223.869,193.301"/>
            <path d="M222.869,192.801 L222.869,193.301"/>
            <path d="M223.369,192.801 L222.869,192.801"/>
            <path d="M223.369,192.301 L223.369,192.801"/>
            <path d="M223.869,192.301 L223.369,192.301"/>
            <path d="M196.869,193.301 L195.869,193.301"/>
            <path d="M196.869,192.801 L196.869,193.301"/>
            <path d="M196.369,192.801 L196.869,192.801"/>
            <path d="M196.369,192.301 L196.369,192.801"/>
            <path d="M195.869,192.301 L196.369,192.301"/>
            <path d="M210.115,189.668 L209.869,192.301"/>
            <path d="M210.843,187.135 L210.115,189.668"/>
            <path d="M212.313,184.366 L210.843,187.135"/>
            <path d="M214.356,182.036 L212.313,184.366"/>
            <path d="M216.858,180.273 L214.356,182.036"/>
            <path d="M219.681,179.174 L216.858,180.273"/>
            <path d="M222.669,178.801 L219.681,179.174"/>
            <path d="M198.507,178.887 L197.069,178.801"/>
            <path d="M199.926,179.142 L198.507,178.887"/>
            <path d="M202.488,180.071 L199.926,179.142"/>
            <path d="M204.808,181.548 L202.488,180.071"/>
            <path d="M206.78,183.507 L204.808,181.548"/>
            <path d="M208.317,185.86 L206.78,183.507"/>
            <path d="M209.432,188.807 L208.317,185.86"/>
            <path d="M209.869,192.301 L209.432,188.807"/>
        </g>
        <g id="product-943ec8f2-1abd-4744-8d35-91aa4d1fef76" class="IfcWindow material-null projection" ifc:name="Window" ifc:guid="2KFiZo6hr7H8qraQfD7_zs">
            <path d="M60.9533,77.8012 L60.9533,77.1012"/>
            <path d="M61.6533,77.8012 L60.9533,77.8012"/>
            <path d="M61.6533,77.1012 L61.6533,77.8012"/>
            <path d="M60.9533,77.1012 L61.6533,77.1012"/>
            <path d="M71.9533,77.8012 L71.9533,77.1012"/>
            <path d="M71.2533,77.8012 L71.9533,77.8012"/>
            <path d="M71.2533,77.1012 L71.2533,77.8012"/>
            <path d="M71.9533,77.1012 L71.2533,77.1012"/>
            <path d="M61.4533,76.3012 L60.4533,76.3012"/>
            <path d="M61.4533,77.1012 L61.4533,76.3012"/>
            <path d="M60.9533,77.1012 L61.4533,77.1012"/>
            <path d="M60.9533,77.3012 L60.9533,77.1012"/>
            <path d="M60.4533,77.3012 L60.9533,77.3012"/>
            <path d="M71.4533,76.3012 L72.4533,76.3012"/>
            <path d="M71.4533,77.1012 L71.4533,76.3012"/>
            <path d="M71.9533,77.1012 L71.4533,77.1012"/>
            <path d="M71.9533,77.3012 L71.9533,77.1012"/>
            <path d="M72.4533,77.3012 L71.9533,77.3012"/>
            <path d="M71.2533,77.4512 L61.6533,77.4512"/>
            <path d="M71.2533,77.8012 L61.6533,77.8012"/>
            <path d="M71.2533,77.1012 L61.6533,77.1012"/>
            <path d="M71.4533,76.3012 L61.4533,76.3012"/>
        </g>
        <g id="product-5a2e0fbc-285b-416e-9837-0441079d880d" class="IfcWindow material-null projection" ifc:name="Window" ifc:guid="1QBW_yA5j1RfWt1447dOWD">
            <path d="M122.868,77.8012 L122.868,77.1012"/>
            <path d="M123.568,77.8012 L122.868,77.8012"/>
            <path d="M123.568,77.1012 L123.568,77.8012"/>
            <path d="M122.868,77.1012 L123.568,77.1012"/>
            <path d="M133.868,77.8012 L133.868,77.1012"/>
            <path d="M133.168,77.8012 L133.868,77.8012"/>
            <path d="M133.168,77.1012 L133.168,77.8012"/>
            <path d="M133.868,77.1012 L133.168,77.1012"/>
            <path d="M123.368,76.3012 L122.368,76.3012"/>
            <path d="M123.368,77.1012 L123.368,76.3012"/>
            <path d="M122.868,77.1012 L123.368,77.1012"/>
            <path d="M122.868,77.3012 L122.868,77.1012"/>
            <path d="M122.368,77.3012 L122.868,77.3012"/>
            <path d="M133.368,76.3012 L134.368,76.3012"/>
            <path d="M133.368,77.1012 L133.368,76.3012"/>
            <path d="M133.868,77.1012 L133.368,77.1012"/>
            <path d="M133.868,77.3012 L133.868,77.1012"/>
            <path d="M134.368,77.3012 L133.868,77.3012"/>
            <path d="M133.168,77.4512 L123.568,77.4512"/>
            <path d="M133.168,77.8012 L123.568,77.8012"/>
            <path d="M133.168,77.1012 L123.568,77.1012"/>
            <path d="M133.368,76.3012 L123.368,76.3012"/>
        </g>
        <g id="product-3668702a-9a63-4740-aa70-75eb87e84a57" class="IfcWindow material-null projection" ifc:name="Window" ifc:guid="0sQ70gccD7GAfmTUk7w4fN">
            <path d="M145.208,77.8012 L145.208,77.1012"/>
            <path d="M145.908,77.8012 L145.208,77.8012"/>
            <path d="M145.908,77.1012 L145.908,77.8012"/>
            <path d="M145.208,77.1012 L145.908,77.1012"/>
            <path d="M156.208,77.8012 L156.208,77.1012"/>
            <path d="M155.508,77.8012 L156.208,77.8012"/>
            <path d="M155.508,77.1012 L155.508,77.8012"/>
            <path d="M156.208,77.1012 L155.508,77.1012"/>
            <path d="M145.708,76.3012 L144.708,76.3012"/>
            <path d="M145.708,77.1012 L145.708,76.3012"/>
            <path d="M145.208,77.1012 L145.708,77.1012"/>
            <path d="M145.208,77.3012 L145.208,77.1012"/>
            <path d="M144.708,77.3012 L145.208,77.3012"/>
            <path d="M155.708,76.3012 L156.708,76.3012"/>
            <path d="M155.708,77.1012 L155.708,76.3012"/>
            <path d="M156.208,77.1012 L155.708,77.1012"/>
            <path d="M156.208,77.3012 L156.208,77.1012"/>
            <path d="M156.708,77.3012 L156.208,77.3012"/>
            <path d="M155.508,77.4512 L145.908,77.4512"/>
            <path d="M155.508,77.8012 L145.908,77.8012"/>
            <path d="M155.508,77.1012 L145.908,77.1012"/>
            <path d="M155.708,76.3012 L145.708,76.3012"/>
        </g>
        <g id="product-96e7594e-9e3d-43a7-8538-e7330a618984" class="IfcWindow material-null projection" ifc:name="Window" ifc:guid="2MvrbEdZr3fuKuvpCAOOc4">
            <path d="M203.959,77.8012 L203.959,77.1012"/>
            <path d="M204.659,77.8012 L203.959,77.8012"/>
            <path d="M204.659,77.1012 L204.659,77.8012"/>
            <path d="M203.959,77.1012 L204.659,77.1012"/>
            <path d="M217.459,77.8013 L217.459,77.1013"/>
            <path d="M216.759,77.8013 L217.459,77.8013"/>
            <path d="M216.759,77.1013 L216.759,77.8013"/>
            <path d="M217.459,77.1013 L216.759,77.1013"/>
            <path d="M204.459,76.3012 L203.459,76.3012"/>
            <path d="M204.459,77.1012 L204.459,76.3012"/>
            <path d="M203.959,77.1012 L204.459,77.1012"/>
            <path d="M203.959,77.3012 L203.959,77.1012"/>
            <path d="M203.459,77.3012 L203.959,77.3012"/>
            <path d="M217.459,77.8013 L217.459,77.1013"/>
            <path d="M218.159,77.8013 L217.459,77.8013"/>
            <path d="M218.159,77.1013 L218.159,77.8013"/>
            <path d="M217.459,77.1013 L218.159,77.1013"/>
            <path d="M230.959,77.8013 L230.959,77.1013"/>
            <path d="M230.259,77.8013 L230.959,77.8013"/>
            <path d="M230.259,77.1013 L230.259,77.8013"/>
            <path d="M230.959,77.1013 L230.259,77.1013"/>
            <path d="M230.459,76.3013 L231.459,76.3013"/>
            <path d="M230.459,77.1013 L230.459,76.3013"/>
            <path d="M230.959,77.1013 L230.459,77.1013"/>
            <path d="M230.959,77.3013 L230.959,77.1013"/>
            <path d="M231.459,77.3013 L230.959,77.3013"/>
            <path d="M216.759,77.4513 L204.659,77.4512"/>
            <path d="M216.759,77.8013 L204.659,77.8012"/>
            <path d="M216.759,77.1013 L204.659,77.1012"/>
            <path d="M216.959,76.3013 L217.459,76.3013"/>
            <path d="M216.959,77.1013 L216.959,76.3013"/>
            <path d="M217.459,77.1013 L216.959,77.1013"/>
            <path d="M217.459,77.3013 L217.459,77.1013"/>
            <path d="M216.959,76.3013 L204.459,76.3012"/>
            <path d="M230.259,77.4513 L218.159,77.4513"/>
            <path d="M230.259,77.8013 L218.159,77.8013"/>
            <path d="M230.259,77.1013 L218.159,77.1013"/>
            <path d="M217.959,76.3013 L217.459,76.3013"/>
            <path d="M217.959,77.1013 L217.959,76.3013"/>
            <path d="M217.459,77.1013 L217.959,77.1013"/>
            <path d="M217.459,77.3013 L217.459,77.1013"/>
            <path d="M230.459,76.3013 L217.959,76.3013"/>
        </g>
        <g id="product-bc1e6328-c5dc-4d45-b75f-e5f7a7679edd" class="IfcWindow material-null projection" ifc:name="Window" ifc:guid="2y7cCenTnDHRTVvVUdPvxT">
            <path d="M110.594,222.801 L110.594,223.501"/>
            <path d="M109.894,222.801 L110.594,222.801"/>
            <path d="M109.894,223.501 L109.894,222.801"/>
            <path d="M110.594,223.501 L109.894,223.501"/>
            <path d="M97.0936,222.801 L97.0936,223.501"/>
            <path d="M97.7936,222.801 L97.0936,222.801"/>
            <path d="M97.7936,223.501 L97.7936,222.801"/>
            <path d="M97.0936,223.501 L97.7936,223.501"/>
            <path d="M110.094,224.301 L111.094,224.301"/>
            <path d="M110.094,223.501 L110.094,224.301"/>
            <path d="M110.594,223.501 L110.094,223.501"/>
            <path d="M110.594,223.301 L110.594,223.501"/>
            <path d="M111.094,223.301 L110.594,223.301"/>
            <path d="M97.0936,222.801 L97.0936,223.501"/>
            <path d="M96.3936,222.801 L97.0936,222.801"/>
            <path d="M96.3936,223.501 L96.3936,222.801"/>
            <path d="M97.0936,223.501 L96.3936,223.501"/>
            <path d="M83.5936,222.801 L83.5936,223.501"/>
            <path d="M84.2936,222.801 L83.5936,222.801"/>
            <path d="M84.2936,223.501 L84.2936,222.801"/>
            <path d="M83.5936,223.501 L84.2936,223.501"/>
            <path d="M84.0936,224.301 L83.0936,224.301"/>
            <path d="M84.0936,223.501 L84.0936,224.301"/>
            <path d="M83.5936,223.501 L84.0936,223.501"/>
            <path d="M83.5936,223.301 L83.5936,223.501"/>
            <path d="M83.0936,223.301 L83.5936,223.301"/>
            <path d="M97.7936,223.151 L109.894,223.151"/>
            <path d="M97.7936,222.801 L109.894,222.801"/>
            <path d="M97.7936,223.501 L109.894,223.501"/>
            <path d="M97.5936,224.301 L97.0936,224.301"/>
            <path d="M97.5936,223.501 L97.5936,224.301"/>
            <path d="M97.0936,223.501 L97.5936,223.501"/>
            <path d="M97.0936,223.301 L97.0936,223.501"/>
            <path d="M97.5936,224.301 L110.094,224.301"/>
            <path d="M84.2936,223.151 L96.3936,223.151"/>
            <path d="M84.2936,222.801 L96.3936,222.801"/>
            <path d="M84.2936,223.501 L96.3936,223.501"/>
            <path d="M96.5936,224.301 L97.0936,224.301"/>
            <path d="M96.5936,223.501 L96.5936,224.301"/>
            <path d="M97.0936,223.501 L96.5936,223.501"/>
            <path d="M97.0936,223.301 L97.0936,223.501"/>
            <path d="M84.0936,224.301 L96.5936,224.301"/>
        </g>
        <g id="product-52d6893b-e0a9-41d1-b362-16cfea33fd0b" class="IfcDoor material-null projection" ifc:name="Door" ifc:guid="1IreaxuAb1qRDY5i$gC$qB">
            <path d="M142.399,104.701 L142.399,121.701"/>
            <path d="M143.099,104.701 L142.399,104.701"/>
            <path d="M143.099,121.701 L143.099,104.701"/>
            <path d="M142.399,121.701 L143.099,121.701"/>
            <path d="M158.899,122.701 L159.899,122.701"/>
            <path d="M158.899,122.201 L158.899,122.701"/>
            <path d="M159.399,122.201 L158.899,122.201"/>
            <path d="M159.399,121.701 L159.399,122.201"/>
            <path d="M159.899,121.701 L159.399,121.701"/>
            <path d="M142.899,122.701 L141.899,122.701"/>
            <path d="M142.899,122.201 L142.899,122.701"/>
            <path d="M142.399,122.201 L142.899,122.201"/>
            <path d="M142.399,121.701 L142.399,122.201"/>
            <path d="M141.899,121.701 L142.399,121.701"/>
            <path d="M146.279,105.028 L143.099,104.701"/>
            <path d="M149.337,105.995 L146.279,105.028"/>
            <path d="M152.68,107.948 L149.337,105.995"/>
            <path d="M155.494,110.661 L152.68,107.948"/>
            <path d="M157.623,113.983 L155.494,110.661"/>
            <path d="M158.949,117.733 L157.623,113.983"/>
            <path d="M159.399,121.701 L158.949,117.733"/>
        </g>
        <g id="product-56bae651-0be7-4db4-80d5-b9f283ddb0b2" class="IfcDoor material-null projection" ifc:name="Door" ifc:guid="1MkkPH2_TDj83LkVA3tR2o">
            <path d="M99.0595,96.6926 L99.0595,79.6926"/>
            <path d="M98.3595,96.6926 L99.0595,96.6926"/>
            <path d="M98.3595,79.6926 L98.3595,96.6926"/>
            <path d="M99.0595,79.6926 L98.3595,79.6926"/>
            <path d="M82.5595,78.6926 L81.5595,78.6926"/>
            <path d="M82.5595,79.1926 L82.5595,78.6926"/>
            <path d="M82.0595,79.1926 L82.5595,79.1926"/>
            <path d="M82.0595,79.6926 L82.0595,79.1926"/>
            <path d="M81.5595,79.6926 L82.0595,79.6926"/>
            <path d="M98.5595,78.6926 L99.5595,78.6926"/>
            <path d="M98.5595,79.1926 L98.5595,78.6926"/>
            <path d="M99.0595,79.1926 L98.5595,79.1926"/>
            <path d="M99.0595,79.6926 L99.0595,79.1926"/>
            <path d="M99.5595,79.6926 L99.0595,79.6926"/>
            <path d="M95.1795,96.366 L98.3595,96.6926"/>
            <path d="M92.1217,95.3986 L95.1795,96.366"/>
            <path d="M88.7786,93.4459 L92.1217,95.3986"/>
            <path d="M85.9649,90.7332 L88.7786,93.4459"/>
            <path d="M83.8361,87.4105 L85.9649,90.7332"/>
            <path d="M82.5098,83.6612 L83.8361,87.4105"/>
            <path d="M82.0595,79.6926 L82.5098,83.6612"/>
        </g>
        <g id="product-4d73e87c-4710-4024-afcf-9e42531dd790" class="IfcDoor material-null projection" ifc:name="Door" ifc:guid="1DS_XyHn109A$Fda9J7TUG">
            <path d="M146.519,214.007 L163.519,214.007"/>
            <path d="M146.519,213.307 L146.519,214.007"/>
            <path d="M163.519,213.307 L146.519,213.307"/>
            <path d="M163.519,214.007 L163.519,213.307"/>
            <path d="M164.519,197.507 L164.519,196.507"/>
            <path d="M164.019,197.507 L164.519,197.507"/>
            <path d="M164.019,197.007 L164.019,197.507"/>
            <path d="M163.519,197.007 L164.019,197.007"/>
            <path d="M163.519,196.507 L163.519,197.007"/>
            <path d="M164.519,213.507 L164.519,214.507"/>
            <path d="M164.019,213.507 L164.519,213.507"/>
            <path d="M164.019,214.007 L164.019,213.507"/>
            <path d="M163.519,214.007 L164.019,214.007"/>
            <path d="M163.519,214.507 L163.519,214.007"/>
            <path d="M146.845,210.127 L146.519,213.307"/>
            <path d="M147.813,207.069 L146.845,210.127"/>
            <path d="M149.765,203.726 L147.813,207.069"/>
            <path d="M152.478,200.912 L149.765,203.726"/>
            <path d="M155.801,198.783 L152.478,200.912"/>
            <path d="M159.55,197.457 L155.801,198.783"/>
            <path d="M163.519,197.007 L159.55,197.457"/>
        </g>
        <g class="3Dkw0JbXL3lv9Qh$ofJvsE 2TtOnb1OT6Qh3ZvuiAt9q2 cut 0X_j88FIz0vwOayK6_8dlr 0Fv_zfsBb0iwsfU_Dq9gfg 2w2UuEqgD21Oo6WEXEPSkD IfcWall 3sARtet6X8lff$r_XMADMT 3jg8DFWmXBceNmfKsSt95f 3PAvCo6oHB_RasWwIvv88P 0a9m4Uc9f7OQzW$jhciQQb material-null 1QOPYZaNbExBE$Y27CNLWo 3Lirl$nkj3qwIEvpnDbPkm"><path d="M47.9,82.7 L47.9,225.3 L55.3,225.3 L83.1,225.3 L83.1,217.9 L55.3,217.9 L55.3,82.7 L60.5,82.7 L60.5,75.3 L47.9,75.3 Z"/></g><g class="3Dkw0JbXL3lv9Qh$ofJvsE 2TtOnb1OT6Qh3ZvuiAt9q2 cut 0X_j88FIz0vwOayK6_8dlr 0Fv_zfsBb0iwsfU_Dq9gfg 2w2UuEqgD21Oo6WEXEPSkD IfcWall 3sARtet6X8lff$r_XMADMT 3jg8DFWmXBceNmfKsSt95f 3PAvCo6oHB_RasWwIvv88P 0a9m4Uc9f7OQzW$jhciQQb material-null 1QOPYZaNbExBE$Y27CNLWo 3Lirl$nkj3qwIEvpnDbPkm"><path d="M81.6,82.7 L81.6,75.3 L72.5,75.3 L72.5,82.7 Z"/></g><g class="3Dkw0JbXL3lv9Qh$ofJvsE 2TtOnb1OT6Qh3ZvuiAt9q2 cut 0X_j88FIz0vwOayK6_8dlr 0Fv_zfsBb0iwsfU_Dq9gfg 2w2UuEqgD21Oo6WEXEPSkD IfcWall 3sARtet6X8lff$r_XMADMT 3jg8DFWmXBceNmfKsSt95f 3PAvCo6oHB_RasWwIvv88P 0a9m4Uc9f7OQzW$jhciQQb material-null 1QOPYZaNbExBE$Y27CNLWo 3Lirl$nkj3qwIEvpnDbPkm"><path d="M118.9,122.7 L141.9,122.7 L141.9,121.1 L140.9,121.1 L140.9,82.7 L144.7,82.7 L144.7,75.3 L134.4,75.3 L134.4,82.7 L139.3,82.7 L139.3,121.1 L120.5,121.1 L120.5,82.7 L122.4,82.7 L122.4,75.3 L99.6,75.3 L99.6,82.7 L118.9,82.7 L118.9,121.1 Z"/></g><g class="3Dkw0JbXL3lv9Qh$ofJvsE 2TtOnb1OT6Qh3ZvuiAt9q2 cut 0X_j88FIz0vwOayK6_8dlr 0Fv_zfsBb0iwsfU_Dq9gfg 2w2UuEqgD21Oo6WEXEPSkD IfcWall 3sARtet6X8lff$r_XMADMT 3jg8DFWmXBceNmfKsSt95f 3PAvCo6oHB_RasWwIvv88P 0a9m4Uc9f7OQzW$jhciQQb material-null 1QOPYZaNbExBE$Y27CNLWo 3Lirl$nkj3qwIEvpnDbPkm"><path d="M111.1,217.9 L111.1,225.3 L167.9,225.3 L167.9,217.9 L167.9,214.5 L160.5,214.5 L160.5,217.9 Z"/></g><g class="3Dkw0JbXL3lv9Qh$ofJvsE 2TtOnb1OT6Qh3ZvuiAt9q2 cut 0X_j88FIz0vwOayK6_8dlr 0Fv_zfsBb0iwsfU_Dq9gfg 2w2UuEqgD21Oo6WEXEPSkD IfcWall 3sARtet6X8lff$r_XMADMT 3jg8DFWmXBceNmfKsSt95f 3PAvCo6oHB_RasWwIvv88P 0a9m4Uc9f7OQzW$jhciQQb material-null 1QOPYZaNbExBE$Y27CNLWo 3Lirl$nkj3qwIEvpnDbPkm"><path d="M159.9,121.1 L159.9,122.7 L160.5,122.7 L160.5,124.8 L163.5,124.8 L163.5,82.7 L203.5,82.7 L203.5,75.3 L156.7,75.3 L156.7,82.7 L160.5,82.7 L160.5,121.1 Z"/></g><g class="3Dkw0JbXL3lv9Qh$ofJvsE 2TtOnb1OT6Qh3ZvuiAt9q2 cut 0X_j88FIz0vwOayK6_8dlr 0Fv_zfsBb0iwsfU_Dq9gfg 2w2UuEqgD21Oo6WEXEPSkD IfcWall 3sARtet6X8lff$r_XMADMT 3jg8DFWmXBceNmfKsSt95f 3PAvCo6oHB_RasWwIvv88P 0a9m4Uc9f7OQzW$jhciQQb material-null 1QOPYZaNbExBE$Y27CNLWo 3Lirl$nkj3qwIEvpnDbPkm"><path d="M244.5,82.7 L244.5,185.9 L223.9,185.9 L223.9,193.3 L251.9,193.3 L251.9,185.9 L251.9,82.7 L251.9,75.3 L231.5,75.3 L231.5,82.7 Z"/></g><g class="3Dkw0JbXL3lv9Qh$ofJvsE 2TtOnb1OT6Qh3ZvuiAt9q2 cut 0X_j88FIz0vwOayK6_8dlr 0Fv_zfsBb0iwsfU_Dq9gfg 2w2UuEqgD21Oo6WEXEPSkD IfcWall 3sARtet6X8lff$r_XMADMT 3jg8DFWmXBceNmfKsSt95f 3PAvCo6oHB_RasWwIvv88P 0a9m4Uc9f7OQzW$jhciQQb material-null 1QOPYZaNbExBE$Y27CNLWo 3Lirl$nkj3qwIEvpnDbPkm"><path d="M160.5,193.3 L160.5,196.5 L167.9,196.5 L167.9,193.3 L195.9,193.3 L195.9,185.9 L163.5,185.9 L163.5,165.9 L160.5,165.9 L160.5,185.9 Z"/></g></g>
</svg>