<svg xmlns="http://www.w3.org/2000/svg" xmlns:xlink="http://www.w3.org/1999/xlink" xmlns:ifc="http://www.ifcopenshell.org/ns" width="300mm" height="300mm" viewBox="0 0 300 300">
    <defs>
        <marker id="arrowend" markerWidth="10" markerHeight="7" refX="10" refY="3.5" orient="auto">
          <polygon points="0 0, 10 3.5, 0 7"/>
        </marker>
        <marker id="arrowstart" markerWidth="10" markerHeight="7" refX="0" refY="3.5" orient="auto">
          <polygon points="10 0, 0 3.5, 10 7"/>
        </marker>
    </defs>
    <g ifc:name="Elevation RDC" class="section" ifc:plane="[[1.000000,0.000000,0.000000,0.000000],[0.000000,1.000000,0.000000,0.000000],[0.000000,0.000000,1.000000,1.600000],[0.000000,0.000000,0.000000,1.000000]]" ifc:matrix3="[[20.000000,0.000000,47.939177],[0.000000,20.000000,225.301263],[0.000000,0.000000,1.000000]]">
        <g id="product-f01831ea-075e-463e-ba53-7f06e585b782" class="IfcBuildingElementProxy material-null projection" ifc:name="BuildingElementProxy" ifc:guid="3m637g1rv6FhfJVmRbXRU2">
            <path d="M186.051,215.694 L186.227,215.97"/>
            <path d="M186.051,215.694 L186.164,215.72"/>
            <path d="M185.884,215.055 L186.164,215.72"/>
            <path d="M185.899,215.061 L186.304,215.809"/>
            <path d="M186.526,215.958 L187.078,216.442"/>
            <path d="M187.161,216.465 L186.526,215.958"/>
            <path d="M187.161,216.465 L187.078,216.442"/>
            <path d="M187.161,216.465 L187.116,216.454"/>
            <path d="M186.689,216.111 L186.668,216.149"/>
            <path d="M196.508,216.086 L196.743,215.727"/>
            <path d="M185.743,214.506 L185.767,214.471"/>
            <path d="M185.748,214.498 L185.743,214.506"/>
            <path d="M185.743,214.506 L185.746,214.503"/>
            <path d="M196.508,216.086 L196.465,216.064"/>
            <path d="M185.743,214.506 L185.748,214.505"/>
            <path d="M185.743,214.506 L185.746,214.508"/>
            <path d="M185.743,214.506 L185.746,214.509"/>
            <path d="M185.743,214.506 L185.748,214.639"/>
            <path d="M196.465,216.064 L196.712,215.751"/>
            <path d="M186.625,216.17 L186.227,215.97"/>
            <path d="M186.304,215.809 L186.164,215.72"/>
            <path d="M196.539,216.066 L196.57,216.055"/>
            <path d="M196.962,215.822 L196.539,216.066"/>
            <path d="M196.962,215.822 L196.57,216.055"/>
            <path d="M196.645,215.801 L196.173,216.32"/>
            <path d="M197.275,214.923 L196.979,215.571"/>
            <path d="M196.962,215.822 L196.979,215.571"/>
            <path d="M196.117,216.337 L196.645,215.801"/>
            <path d="M196.853,214.942 L196.117,216.337"/>
            <path d="M196.877,214.945 L196.645,215.801"/>
            <path d="M197.275,214.923 L197.072,214.88"/>
            <path d="M197.275,214.923 L197.151,214.854"/>
            <path d="M197.275,214.923 L197.284,214.785"/>
            <path d="M196.497,215.121 L196.584,214.763"/>
            <path d="M196.445,216.027 L196.452,216.014"/>
            <path d="M196.445,216.027 L196.45,216.016"/>
            <path d="M196.445,216.027 L196.447,216.019"/>
            <path d="M196.35,215.439 L196.64,214.813"/>
            <path d="M196.35,215.439 L195.991,216.225"/>
            <path d="M196.995,215.75 L197.009,215.686"/>
            <path d="M196.962,215.822 L196.995,215.75"/>
            <path d="M196.962,215.822 L197.275,214.923"/>
            <path d="M197.346,214.744 L197.275,214.923"/>
            <path d="M197.346,214.744 L197.337,214.71"/>
            <path d="M197.346,214.744 L197.344,214.7"/>
            <path d="M196.641,214.813 L195.991,216.225"/>
            <path d="M196.539,216.066 L196.979,215.571"/>
            <path d="M196.011,216.281 L196.027,216.311"/>
            <path d="M196.903,215.607 L196.979,215.571"/>
            <path d="M186.199,215.167 L187.236,216.4"/>
            <path d="M187.236,216.4 L186.334,215.119"/>
            <path d="M186.051,215.694 L185.869,215.05"/>
            <path d="M196.117,216.337 L196.173,216.32"/>
            <path d="M187.255,216.344 L187.236,216.4"/>
            <path d="M186.779,215.466 L186.567,214.862"/>
            <path d="M186.689,216.111 L186.684,216.096"/>
            <path d="M186.668,216.149 L186.49,215.934"/>
            <path d="M186.625,216.17 L186.668,216.149"/>
            <path d="M186.526,215.958 L186.304,215.809"/>
            <path d="M186.165,215.155 L186.304,215.809"/>
            <path d="M186.175,215.159 L186.526,215.958"/>
            <path d="M186.689,216.111 L186.68,216.093"/>
            <path d="M186.689,216.111 L186.629,216.049"/>
            <path d="M196.139,216.334 L196.173,216.32"/>
            <path d="M186.689,216.111 L186.687,216.099"/>
            <path d="M196.445,216.027 L196.465,216.064"/>
            <path d="M196.445,216.027 L196.456,216.01"/>
            <path d="M196.465,216.064 L196.542,215.914"/>
            <path d="M187.116,216.454 L187.078,216.442"/>
            <path d="M186.23,215.762 L186.226,215.761"/>
            <path d="M186.226,215.761 L186.227,215.97"/>
            <path d="M186.164,215.72 L186.227,215.97"/>
            <path d="M186.164,215.72 L186.226,215.761"/>
            <path d="M196.053,216.336 L196.093,216.346"/>
            <path d="M196.053,216.336 L196.117,216.337"/>
            <path d="M197.275,214.923 L196.903,215.607"/>
            <path d="M196.645,215.801 L196.903,215.607"/>
            <path d="M197.275,214.923 L196.645,215.801"/>
            <path d="M196.053,216.336 L196.027,216.311"/>
            <path d="M195.991,216.225 L196.011,216.281"/>
            <path d="M196.732,214.884 L195.991,216.225"/>
            <path d="M196.735,214.885 L196.011,216.281"/>
            <path d="M196.539,216.066 L196.848,215.648"/>
            <path d="M196.539,216.066 L196.508,216.086"/>
            <path d="M196.508,216.086 L196.845,215.651"/>
            <path d="M196.053,216.336 L196.011,216.281"/>
            <path d="M196.846,214.938 L196.011,216.281"/>
            <path d="M196.85,214.94 L196.053,216.336"/>
            <path d="M187.236,216.4 L187.225,216.429"/>
            <path d="M187.199,216.455 L187.236,216.4"/>
            <path d="M187.255,216.344 L186.336,215.118"/>
            <path d="M186.051,215.694 L185.829,215.036"/>
            <path d="M187.199,216.455 L187.225,216.429"/>
            <path d="M196.117,216.337 L196.093,216.346"/>
            <path d="M196.117,216.337 L196.139,216.334"/>
            <path d="M196.139,216.334 L196.093,216.346"/>
            <path d="M186.779,215.466 L187.255,216.344"/>
            <path d="M186.439,215.018 L187.255,216.344"/>
            <path d="M186.445,215.01 L186.779,215.466"/>
            <path d="M186.625,216.17 L186.435,215.897"/>
            <path d="M186.625,216.17 L186.226,215.761"/>
            <path d="M186.193,215.165 L187.161,216.465"/>
            <path d="M186.195,215.166 L187.199,216.455"/>
            <path d="M187.199,216.455 L187.161,216.465"/>
            <path d="M188.585,217.247 L188.734,217.165"/>
            <path d="M190.073,214.167 L190.041,213.693"/>
            <path d="M192.797,214.167 L192.542,214.571"/>
            <path d="M193.014,214.438 L192.233,214.882"/>
            <path d="M192.233,214.882 L191.672,215.013"/>
            <path d="M191.672,215.013 L192.542,214.571"/>
            <path d="M192.233,214.882 L192.542,214.571"/>
            <path d="M190.087,216.181 L192.767,216.297"/>
            <path d="M194.228,215.176 L194.36,215.387"/>
            <path d="M196.428,214.031 L197.26,214.818"/>
            <path d="M196.428,214.031 L196.866,214.948"/>
            <path d="M190.087,216.181 L190.104,216.297"/>
            <path d="M190.087,216.181 L189.797,216.231"/>
            <path d="M194.36,215.387 L192.767,216.297"/>
            <path d="M194.585,215.224 L194.653,215.144"/>
            <path d="M194.36,215.387 L194.653,215.144"/>
            <path d="M195.427,214.75 L194.653,215.144"/>
            <path d="M195.128,214.191 L195.637,214.511"/>
            <path d="M188.886,215.724 L188.835,216.972"/>
            <path d="M188.649,217.172 L188.734,217.165"/>
            <path d="M188.649,217.172 L188.835,216.972"/>
            <path d="M188.861,215.703 L188.649,217.172"/>
            <path d="M190.259,213.257 L190.666,212.959"/>
            <path d="M189.235,212.711 L187.329,213.25"/>
            <path d="M189.059,212.45 L187.329,213.25"/>
            <path d="M189.235,212.711 L189.059,212.45"/>
            <path d="M189.889,212.679 L189.235,212.711"/>
            <path d="M191.972,214.804 L191.757,214.13"/>
            <path d="M195.874,216.845 L195.926,216.692"/>
            <path d="M195.88,216.849 L195.795,216.949"/>
            <path d="M195.88,216.849 L195.874,216.845"/>
            <path d="M190.409,211.834 L192.499,211.932"/>
            <path d="M189.891,212.058 L190.341,211.984"/>
            <path d="M189.889,212.679 L189.522,212.281"/>
            <path d="M189.889,212.679 L189.059,212.45"/>
            <path d="M190.341,211.984 L192.499,211.932"/>
            <path d="M192.979,212.057 L190.341,211.984"/>
            <path d="M192.979,212.057 L189.891,212.058"/>
            <path d="M193.692,212.116 L192.499,211.932"/>
            <path d="M190.276,212.536 L190.666,212.959"/>
            <path d="M190.276,212.536 L192.594,212.536"/>
            <path d="M192.979,212.057 L192.594,212.536"/>
            <path d="M194.887,212.65 L192.594,212.536"/>
            <path d="M192.2,212.959 L190.666,212.959"/>
            <path d="M190.666,212.959 L192.594,212.536"/>
            <path d="M194.887,212.65 L195.369,212.854"/>
            <path d="M195.696,212.873 L195.369,212.854"/>
            <path d="M195.696,212.873 L195.909,213.03"/>
            <path d="M195.047,217.273 L195.015,217.183"/>
            <path d="M194.924,217.247 L195.015,217.183"/>
            <path d="M197.26,214.818 L196.517,213.748"/>
            <path d="M196.428,214.031 L196.517,213.748"/>
            <path d="M195.637,214.511 L196.428,214.031"/>
            <path d="M195.637,214.511 L196.517,213.748"/>
            <path d="M195.637,214.511 L195.809,214.16"/>
            <path d="M195.809,214.16 L196.517,213.748"/>
            <path d="M195.882,213.703 L196.517,213.748"/>
            <path d="M196.576,213.451 L196.517,213.748"/>
            <path d="M193.509,212.222 L193.692,212.116"/>
            <path d="M193.759,212.3 L193.692,212.116"/>
            <path d="M194.062,212.394 L193.692,212.116"/>
            <path d="M192.979,212.057 L192.499,211.932"/>
            <path d="M192.979,212.057 L194.887,212.65"/>
            <path d="M193.633,212.71 L195.545,213.252"/>
            <path d="M192.609,213.257 L192.2,212.959"/>
            <path d="M192.2,212.959 L192.594,212.536"/>
            <path d="M192.609,213.257 L192.594,212.536"/>
            <path d="M192.145,214.752 L191.757,214.13"/>
            <path d="M192.145,214.752 L191.972,214.804"/>
            <path d="M194.595,215.452 L194.658,215.165"/>
            <path d="M194.595,215.452 L194.859,217.172"/>
            <path d="M194.859,217.172 L194.68,216.972"/>
            <path d="M194.595,215.452 L194.68,216.972"/>
            <path d="M188.925,215.757 L188.835,216.972"/>
            <path d="M194.881,214.825 L194.653,215.144"/>
            <path d="M194.228,215.176 L194.653,215.144"/>
            <path d="M193.042,214.745 L194.228,215.176"/>
            <path d="M194.228,215.176 L194.881,214.825"/>
            <path d="M194.228,215.176 L192.767,216.297"/>
            <path d="M192.846,215.997 L192.767,216.297"/>
            <path d="M189.574,215.958 L190.087,216.181"/>
            <path d="M190.547,215.026 L190.087,216.181"/>
            <path d="M192.846,215.997 L190.087,216.181"/>
            <path d="M189.574,215.958 L190.547,215.026"/>
            <path d="M189.028,215.675 L190.547,215.026"/>
            <path d="M192.846,215.997 L190.547,215.026"/>
            <path d="M192.846,215.997 L191.71,215.019"/>
            <path d="M193.042,214.745 L192.323,215.026"/>
            <path d="M193.014,214.438 L192.323,215.026"/>
            <path d="M193.014,214.438 L193.042,214.745"/>
            <path d="M190.547,215.026 L190.732,214.86"/>
            <path d="M191.71,215.019 L190.547,215.026"/>
            <path d="M187.857,214.559 L188.753,215.323"/>
            <path d="M189.736,214.185 L188.753,215.323"/>
            <path d="M189.736,214.185 L190.547,215.026"/>
            <path d="M190.547,215.026 L188.753,215.323"/>
            <path d="M190.732,214.86 L191.672,215.013"/>
            <path d="M191.71,215.019 L191.672,215.013"/>
            <path d="M191.71,215.019 L190.732,214.86"/>
            <path d="M192.233,214.882 L191.71,215.019"/>
            <path d="M192.233,214.882 L192.323,215.026"/>
            <path d="M192.323,215.026 L191.71,215.019"/>
            <path d="M196.576,213.451 L195.882,213.703"/>
            <path d="M197.412,214.485 L196.945,213.369"/>
            <path d="M196.19,214.176 L196.866,214.948"/>
            <path d="M196.054,214.258 L196.866,214.948"/>
            <path d="M196.027,214.275 L196.709,214.872"/>
            <path d="M196.044,214.264 L196.709,214.872"/>
            <path d="M188.952,215.628 L188.952,215.628"/>
            <path d="M188.95,215.627 L188.95,215.627"/>
            <path d="M187.064,214.262 L186.374,215.096"/>
            <path d="M187.857,214.559 L186.463,213.705"/>
            <path d="M185.826,215.035 L185.718,214.877"/>
            <path d="M185.718,214.877 L186.463,213.705"/>
            <path d="M187.857,214.559 L186.997,213.697"/>
            <path d="M191.229,213.54 L191.193,212.959"/>
            <path d="M192.815,213.665 L192.354,213.071"/>
            <path d="M191.706,213.54 L191.901,212.959"/>
            <path d="M196.866,214.948 L196.709,214.872"/>
            <path d="M195.903,216.726 L195.874,216.845"/>
            <path d="M195.795,216.949 L195.874,216.845"/>
            <path d="M195.795,216.949 L195.903,216.726"/>
            <path d="M192.797,214.167 L192.829,213.693"/>
            <path d="M193.177,213.616 L192.797,214.167"/>
            <path d="M191.972,214.804 L192.002,214.845"/>
            <path d="M191.972,214.804 L191.962,214.866"/>
            <path d="M195.749,214.443 L195.79,214.829"/>
            <path d="M195.903,216.726 L195.926,216.692"/>
            <path d="M195.903,216.726 L195.79,214.829"/>
            <path d="M195.737,214.451 L195.79,214.829"/>
            <path d="M186.561,214.006 L187.857,214.559"/>
            <path d="M188.356,215.259 L187.857,214.559"/>
            <path d="M188.016,214.984 L188.356,215.259"/>
            <path d="M188.294,215.221 L188.356,215.259"/>
            <path d="M188.294,215.221 L189.028,215.675"/>
            <path d="M189.574,215.958 L189.028,215.675"/>
            <path d="M189.574,215.958 L189.797,216.231"/>
            <path d="M189.028,215.675 L189.797,216.231"/>
            <path d="M189.394,216.155 L189.797,216.231"/>
            <path d="M188.294,215.221 L189.797,216.231"/>
            <path d="M190.104,216.297 L189.797,216.231"/>
            <path d="M190.104,216.297 L190.403,216.599"/>
            <path d="M189.797,216.231 L190.403,216.599"/>
            <path d="M189.394,216.155 L190.403,216.599"/>
            <path d="M190.925,216.659 L190.403,216.599"/>
            <path d="M189.394,216.155 L188.294,215.221"/>
            <path d="M186.82,214.116 L186.233,215.179"/>
            <path d="M186.561,214.006 L186.233,215.179"/>
            <path d="M185.826,215.035 L186.233,215.179"/>
            <path d="M185.826,215.035 L186.463,213.705"/>
            <path d="M186.561,214.006 L186.463,213.705"/>
            <path d="M186.561,214.006 L185.826,215.035"/>
            <path d="M188.356,215.259 L188.753,215.323"/>
            <path d="M189.028,215.675 L188.753,215.323"/>
            <path d="M188.356,215.259 L189.028,215.675"/>
            <path d="M189.736,214.185 L187.857,214.559"/>
            <path d="M187.857,214.559 L187.68,213.724"/>
            <path d="M195.88,216.849 L195.926,216.692"/>
            <path d="M189.23,213.201 L187.329,213.25"/>
            <path d="M189.23,213.201 L187.68,213.724"/>
            <path d="M189.23,213.201 L189.693,213.616"/>
            <path d="M189.23,213.201 L189.235,212.711"/>
            <path d="M190.259,213.257 L189.235,212.711"/>
            <path d="M190.259,213.257 L189.23,213.201"/>
            <path d="M190.259,213.257 L190.041,213.693"/>
            <path d="M189.693,213.616 L190.041,213.693"/>
            <path d="M190.259,213.257 L189.693,213.616"/>
            <path d="M193.633,212.71 L192.609,213.257"/>
            <path d="M193.639,213.2 L193.633,212.71"/>
            <path d="M195.814,213.226 L195.882,213.703"/>
            <path d="M193.639,213.2 L195.545,213.252"/>
            <path d="M195.545,213.252 L195.882,213.703"/>
            <path d="M195.188,213.723 L195.545,213.252"/>
            <path d="M193.639,213.2 L195.188,213.723"/>
            <path d="M193.177,213.616 L192.829,213.693"/>
            <path d="M192.609,213.257 L192.829,213.693"/>
            <path d="M197.37,214.663 L197.412,214.485"/>
            <path d="M194.585,215.224 L194.36,215.387"/>
            <path d="M191.136,213.046 L191.229,213.54"/>
            <path d="M190.388,213.96 L191.136,213.046"/>
            <path d="M190.388,213.96 L190.787,212.959"/>
            <path d="M190.081,213.95 L190.71,212.959"/>
            <path d="M193.014,214.438 L193.225,214.502"/>
            <path d="M193.134,214.185 L193.225,214.502"/>
            <path d="M193.19,213.908 L193.225,214.502"/>
            <path d="M193.225,214.502 L195.128,214.191"/>
            <path d="M194.881,214.825 L195.128,214.191"/>
            <path d="M195.545,213.252 L195.814,213.226"/>
            <path d="M195.369,212.854 L195.545,213.252"/>
            <path d="M197.318,214.118 L197.304,214.104"/>
            <path d="M197.401,214.301 L196.945,213.369"/>
            <path d="M195.442,214.733 L195.795,216.949"/>
            <path d="M187.995,214.968 L187.715,216.949"/>
            <path d="M187.715,216.949 L187.606,216.726"/>
            <path d="M187.636,216.845 L187.606,216.726"/>
            <path d="M187.715,216.949 L187.636,216.845"/>
            <path d="M187.634,216.849 L187.715,216.949"/>
            <path d="M187.634,216.849 L187.733,216.99"/>
            <path d="M194.68,216.972 L194.782,217.165"/>
            <path d="M190.341,211.984 L190.409,211.834"/>
            <path d="M189.828,212.062 L190.341,211.984"/>
            <path d="M189.828,212.062 L189.891,212.058"/>
            <path d="M189.891,212.058 L189.416,212.152"/>
            <path d="M189.522,212.281 L189.416,212.152"/>
            <path d="M189.522,212.281 L189.059,212.45"/>
            <path d="M189.416,212.152 L189.059,212.45"/>
            <path d="M189.059,212.45 L187.99,212.649"/>
            <path d="M189.059,212.45 L187.508,212.852"/>
            <path d="M186.693,213.262 L187.189,212.681"/>
            <path d="M187.508,212.852 L187.189,212.681"/>
            <path d="M187.508,212.852 L187.401,212.606"/>
            <path d="M187.508,212.852 L187.99,212.649"/>
            <path d="M189.416,212.152 L187.99,212.649"/>
            <path d="M188.67,212.412 L188.702,212.378"/>
            <path d="M188.709,212.399 L188.702,212.378"/>
            <path d="M190.409,211.834 L188.702,212.378"/>
            <path d="M190.156,212.012 L190.409,211.834"/>
            <path d="M188.585,217.247 L188.649,217.172"/>
            <path d="M188.585,217.247 L188.49,217.183"/>
            <path d="M188.462,217.273 L188.585,217.247"/>
            <path d="M188.462,217.273 L188.49,217.183"/>
            <path d="M192.807,214.016 L191.757,214.13"/>
            <path d="M191.757,214.13 L191.583,213.58"/>
            <path d="M191.613,214.164 L191.583,213.58"/>
            <path d="M191.757,214.13 L191.613,214.164"/>
            <path d="M190.952,214.804 L190.89,214.885"/>
            <path d="M190.388,213.96 L191.229,213.54"/>
            <path d="M190.081,213.95 L190.388,213.96"/>
            <path d="M190.388,213.96 L191.06,214.134"/>
            <path d="M190.061,213.99 L191.06,214.134"/>
            <path d="M190.081,213.95 L191.06,214.134"/>
            <path d="M190.792,214.752 L191.06,214.134"/>
            <path d="M190.792,214.752 L191.177,214.13"/>
            <path d="M190.792,214.752 L190.952,214.804"/>
            <path d="M190.952,214.804 L191.177,214.13"/>
            <path d="M193.19,213.908 L195.128,214.191"/>
            <path d="M187.329,213.25 L187.508,212.852"/>
            <path d="M187.329,213.25 L187.066,213.22"/>
            <path d="M186.407,213.406 L185.718,214.877"/>
            <path d="M186.407,213.406 L185.78,214.332"/>
            <path d="M187.066,213.22 L186.997,213.697"/>
            <path d="M185.718,214.877 L185.747,214.62"/>
            <path d="M185.749,214.605 L185.764,214.476"/>
            <path d="M185.764,214.474 L185.78,214.332"/>
            <path d="M195.188,213.723 L195.882,213.703"/>
            <path d="M195.809,214.16 L195.882,213.703"/>
            <path d="M185.695,214.511 L185.78,214.332"/>
            <path d="M195.212,217.299 L195.029,217.3"/>
            <path d="M195.212,217.299 L195.047,217.273"/>
            <path d="M195.232,217.265 L195.047,217.273"/>
            <path d="M195.212,217.299 L195.232,217.265"/>
            <path d="M188.835,216.972 L188.734,217.165"/>
            <path d="M194.595,215.452 L194.594,215.217"/>
            <path d="M194.595,215.452 L194.561,215.242"/>
            <path d="M194.541,215.256 L194.68,216.972"/>
            <path d="M194.859,217.172 L194.782,217.165"/>
            <path d="M194.924,217.247 L194.859,217.172"/>
            <path d="M194.924,217.247 L194.782,217.165"/>
            <path d="M187.726,214.829 L187.606,216.726"/>
            <path d="M187.587,216.692 L187.606,216.726"/>
            <path d="M187.726,214.829 L187.732,214.769"/>
            <path d="M187.726,214.829 L187.732,214.769"/>
            <path d="M191.201,212.959 L191.313,214.164"/>
            <path d="M188.277,217.265 L188.462,217.273"/>
            <path d="M187.733,216.99 L187.715,216.949"/>
            <path d="M188.483,217.3 L188.462,217.273"/>
            <path d="M188.301,217.299 L188.483,217.3"/>
            <path d="M188.301,217.299 L188.462,217.273"/>
            <path d="M187.189,212.681 L187.401,212.606"/>
            <path d="M188.483,217.3 L188.585,217.247"/>
            <path d="M188.536,217.273 L188.585,217.247"/>
            <path d="M189.693,213.616 L190.073,214.167"/>
            <path d="M193.134,214.185 L192.542,214.571"/>
            <path d="M193.134,214.185 L193.014,214.438"/>
            <path d="M193.014,214.438 L192.542,214.571"/>
            <path d="M190.925,216.659 L190.104,216.297"/>
            <path d="M190.104,216.297 L192.767,216.297"/>
            <path d="M190.925,216.659 L192.767,216.297"/>
            <path d="M194.881,214.825 L195.427,214.75"/>
            <path d="M194.881,214.825 L195.637,214.511"/>
            <path d="M195.637,214.511 L195.427,214.75"/>
            <path d="M190.259,213.257 L190.276,212.536"/>
            <path d="M190.259,213.257 L189.889,212.679"/>
            <path d="M189.889,212.679 L190.276,212.536"/>
            <path d="M191.613,214.164 L191.461,214.188"/>
            <path d="M191.972,214.804 L191.461,214.188"/>
            <path d="M191.972,214.804 L191.613,214.164"/>
            <path d="M195.781,216.99 L195.88,216.849"/>
            <path d="M191.461,214.188 L191.583,213.58"/>
            <path d="M191.493,212.959 L191.583,213.58"/>
            <path d="M197.26,214.818 L196.866,214.948"/>
            <path d="M191.697,212.959 L191.583,213.58"/>
            <path d="M191.706,213.54 L191.583,213.58"/>
            <path d="M191.706,213.54 L191.734,212.959"/>
            <path d="M190.276,212.536 L189.522,212.281"/>
            <path d="M189.891,212.058 L189.522,212.281"/>
            <path d="M190.276,212.536 L189.891,212.058"/>
            <path d="M187.726,214.829 L187.587,216.692"/>
            <path d="M188.483,217.3 L188.536,217.273"/>
            <path d="M185.718,214.877 L185.695,214.511"/>
            <path d="M195.232,217.265 L195.015,217.183"/>
            <path d="M194.926,215.004 L195.015,217.183"/>
            <path d="M194.951,214.992 L195.232,217.265"/>
            <path d="M197.26,214.818 L197.412,214.485"/>
            <path d="M196.576,213.451 L197.26,214.818"/>
            <path d="M196.576,213.451 L197.412,214.485"/>
            <path d="M193.633,212.71 L192.594,212.536"/>
            <path d="M195.369,212.854 L192.594,212.536"/>
            <path d="M193.633,212.71 L195.369,212.854"/>
            <path d="M192.466,214.61 L192.145,214.752"/>
            <path d="M192.145,214.752 L192.152,214.769"/>
            <path d="M190.732,214.86 L190.073,214.167"/>
            <path d="M189.736,214.185 L190.732,214.86"/>
            <path d="M189.736,214.185 L190.073,214.167"/>
            <path d="M187.031,214.237 L186.374,215.096"/>
            <path d="M186.374,215.096 L186.233,215.179"/>
            <path d="M187.024,214.231 L186.233,215.179"/>
            <path d="M195.157,212.765 L195.174,212.766"/>
            <path d="M195.171,212.771 L195.174,212.766"/>
            <path d="M190.952,214.804 L191.313,214.164"/>
            <path d="M190.952,214.804 L190.964,214.898"/>
            <path d="M191.313,214.164 L191.151,214.928"/>
            <path d="M194.228,215.176 L192.846,215.997"/>
            <path d="M192.846,215.997 L192.323,215.026"/>
            <path d="M194.228,215.176 L192.323,215.026"/>
            <path d="M196.576,213.451 L196.945,213.369"/>
            <path d="M196.576,213.451 L195.814,213.226"/>
            <path d="M188.49,217.183 L188.649,217.172"/>
            <path d="M188.672,215.542 L188.49,217.183"/>
            <path d="M188.717,215.58 L188.649,217.172"/>
            <path d="M194.74,215.099 L194.859,217.172"/>
            <path d="M194.755,215.092 L195.015,217.183"/>
            <path d="M194.859,217.172 L195.015,217.183"/>
            <path d="M188.941,215.622 L188.941,215.622"/>
            <path d="M188.844,215.561 L188.844,215.562"/>
            <path d="M188.277,217.265 L187.715,216.949"/>
            <path d="M188.171,215.116 L187.715,216.949"/>
            <path d="M188.322,215.244 L188.277,217.265"/>
            <path d="M186.407,213.406 L186.463,213.705"/>
            <path d="M186.407,213.406 L186.997,213.697"/>
            <path d="M186.997,213.697 L186.463,213.705"/>
            <path d="M191.177,214.13 L191.313,214.164"/>
            <path d="M191.229,213.54 L191.313,214.164"/>
            <path d="M191.715,214.991 L191.461,214.188"/>
            <path d="M191.461,214.188 L191.212,214.938"/>
            <path d="M195.465,214.707 L195.903,216.726"/>
            <path d="M195.712,214.465 L195.903,216.726"/>
            <path d="M197.26,214.818 L197.37,214.663"/>
            <path d="M193.134,214.185 L193.19,213.908"/>
            <path d="M193.134,214.185 L192.797,214.167"/>
            <path d="M193.19,213.908 L192.797,214.167"/>
            <path d="M187.401,212.606 L187.99,212.649"/>
            <path d="M188.016,214.984 L187.857,214.559"/>
            <path d="M188.016,214.984 L186.939,214.167"/>
            <path d="M189.736,214.185 L189.693,213.616"/>
            <path d="M189.736,214.185 L187.68,213.724"/>
            <path d="M187.68,213.724 L189.693,213.616"/>
            <path d="M195.926,216.692 L195.79,214.829"/>
            <path d="M187.68,213.724 L186.997,213.697"/>
            <path d="M187.329,213.25 L186.997,213.697"/>
            <path d="M187.68,213.724 L187.329,213.25"/>
            <path d="M193.639,213.2 L193.177,213.616"/>
            <path d="M193.177,213.616 L192.609,213.257"/>
            <path d="M193.639,213.2 L192.609,213.257"/>
            <path d="M197.412,214.485 L197.401,214.301"/>
            <path d="M195.174,212.766 L195.235,212.798"/>
            <path d="M195.174,212.772 L195.174,212.766"/>
            <path d="M195.212,217.299 L195.781,216.99"/>
            <path d="M190.081,213.95 L190.058,213.942"/>
            <path d="M190.081,213.95 L190.057,213.933"/>
            <path d="M193.042,214.745 L194.881,214.825"/>
            <path d="M193.042,214.745 L193.225,214.502"/>
            <path d="M193.225,214.502 L194.881,214.825"/>
            <path d="M195.369,212.854 L196.945,213.369"/>
            <path d="M195.814,213.226 L196.945,213.369"/>
            <path d="M195.369,212.854 L195.814,213.226"/>
            <path d="M195.136,214.898 L195.232,217.265"/>
            <path d="M195.228,214.851 L195.795,216.949"/>
            <path d="M187.757,214.787 L187.606,216.726"/>
            <path d="M187.959,214.941 L187.606,216.726"/>
            <path d="M187.587,216.692 L187.634,216.849"/>
            <path d="M187.587,216.692 L187.636,216.845"/>
            <path d="M187.634,216.849 L187.636,216.845"/>
            <path d="M195.696,212.873 L195.329,212.837"/>
            <path d="M189.828,212.062 L189.416,212.152"/>
            <path d="M188.478,215.377 L188.277,217.265"/>
            <path d="M188.532,215.423 L188.49,217.183"/>
            <path d="M188.277,217.265 L188.49,217.183"/>
            <path d="M192.809,213.982 L191.757,214.13"/>
            <path d="M192.816,213.882 L191.706,213.54"/>
            <path d="M191.757,214.13 L191.706,213.54"/>
            <path d="M190.792,214.752 L190.742,214.861"/>
            <path d="M190.44,214.552 L190.792,214.752"/>
            <path d="M191.06,214.134 L191.177,214.13"/>
            <path d="M191.177,214.13 L191.229,213.54"/>
            <path d="M191.06,214.134 L191.229,213.54"/>
            <path d="M195.188,213.723 L193.177,213.616"/>
            <path d="M193.19,213.908 L195.188,213.723"/>
            <path d="M193.19,213.908 L193.177,213.616"/>
            <path d="M190.081,213.95 L190.058,213.948"/>
            <path d="M187.508,212.852 L187.066,213.22"/>
            <path d="M186.407,213.406 L187.066,213.22"/>
            <path d="M186.407,213.406 L187.508,212.852"/>
            <path d="M195.128,214.191 L195.188,213.723"/>
            <path d="M195.809,214.16 L195.188,213.723"/>
            <path d="M195.128,214.191 L195.809,214.16"/>
            <path d="M195.232,217.265 L195.795,216.949"/>
            <path d="M195.781,216.99 L195.795,216.949"/>
            <path d="M195.232,217.265 L195.781,216.99"/>
            <path d="M191.136,213.046 L191.09,212.959"/>
            <path d="M191.136,213.046 L191.145,212.959"/>
            <path d="M197.401,214.301 L197.318,214.118"/>
            <path d="M195.047,217.273 L194.924,217.247"/>
            <path d="M195.029,217.3 L195.047,217.273"/>
            <path d="M195.029,217.3 L194.924,217.247"/>
            <path d="M188.294,215.221 L188.016,214.984"/>
            <path d="M191.46,212.959 L191.461,214.188"/>
            <path d="M191.437,212.959 L191.313,214.164"/>
            <path d="M191.461,214.188 L191.313,214.164"/>
            <path d="M194.736,215.101 L194.585,215.224"/>
            <path d="M188.301,217.299 L187.733,216.99"/>
            <path d="M188.277,217.265 L187.733,216.99"/>
            <path d="M188.301,217.299 L188.277,217.265"/>
        </g>
    <g id="product-d5b35bff-c6eb-43d3-a48e-e73c4d959bb0" class="IfcWall material-null projection" ifc:name="Wall" ifc:guid="3Lirl$nkj3qwIEvpnDbPkm">
            <path d="M160.539,124.793 L160.539,82.7012"/>
            <path d="M163.539,124.793 L160.539,124.793"/>
            <path d="M163.539,82.7012 L163.539,124.793"/>
            <path d="M160.539,82.7012 L163.539,82.7012"/>
        </g>
        <g id="product-0fe7ef69-d8b9-40b3-ada9-7be37426aa6a" class="IfcWall material-null projection" ifc:name="Wall" ifc:guid="0Fv_zfsBb0iwsfU_Dq9gfg">
            <path d="M120.539,82.7011 L120.539,121.101"/>
            <path d="M118.939,82.7011 L120.539,82.7011"/>
            <path d="M118.939,121.101 L118.939,82.7011"/>
            <path d="M120.539,121.101 L118.939,121.101"/>
        </g>
        <g id="product-21fad208-3d2f-40e7-a624-f141be227bf5" class="IfcWall material-null projection" ifc:name="Wall" ifc:guid="0X_j88FIz0vwOayK6_8dlr">
            <path d="M141.899,122.701 L141.899,121.101"/>
            <path d="M141.899,121.101 L118.939,121.101"/>
            <path d="M118.939,121.101 L118.939,122.701"/>
            <path d="M141.899,122.701 L118.939,122.701"/>
            <path d="M159.899,121.101 L159.899,122.701"/>
            <path d="M160.539,122.701 L159.899,122.701"/>
            <path d="M160.539,121.101 L160.539,122.701"/>
            <path d="M160.539,121.101 L159.899,121.101"/>
        </g>
        <g id="product-5a6198a3-9179-4eec-b3bf-8821cc5d5832" class="IfcWall material-null projection" ifc:name="Wall" ifc:guid="1QOPYZaNbExBE$Y27CNLWo">
            <path d="M140.905,82.7011 L140.905,121.101"/>
            <path d="M139.305,82.7011 L140.905,82.7011"/>
            <path d="M139.305,121.101 L139.305,82.7011"/>
            <path d="M140.905,121.101 L139.305,121.101"/>
        </g>
        <g id="product-2427011e-989a-4761-af60-fedae6b1a6a5" class="IfcWall material-null projection" ifc:name="Wall" ifc:guid="0a9m4Uc9f7OQzW$jhciQQb">
            <path d="M160.539,185.901 L160.539,165.901"/>
            <path d="M163.539,185.901 L160.539,185.901"/>
            <path d="M163.539,165.901 L163.539,185.901"/>
            <path d="M160.539,165.901 L163.539,165.901"/>
        </g>
        <g id="product-f629bde8-dc68-48be-9a7f-d7e85628d59d" class="IfcWall material-null projection" ifc:name="Wall" ifc:guid="3sARtet6X8lff$r_XMADMT">
            <path d="M47.9391,225.301 L47.9392,82.7012"/>
            <path d="M55.3391,225.301 L47.9391,225.301"/>
            <path d="M55.3392,82.7012 L55.3391,225.301"/>
            <path d="M47.9392,82.7012 L55.3392,82.7012"/>
        </g>
        <g id="product-eda8834f-8308-4b9a-85f0-a54d9cdc9169" class="IfcWall material-null projection" ifc:name="Wall" ifc:guid="3jg8DFWmXBceNmfKsSt95f">
            <path d="M134.368,82.7012 L122.368,82.7012"/>
            <path d="M134.368,75.3012 L122.368,75.3012"/>
            <path d="M134.368,75.3012 L134.368,82.7012"/>
            <path d="M134.368,82.7012 L144.708,82.7012"/>
            <path d="M144.708,82.7012 L144.708,75.3012"/>
            <path d="M134.368,75.3012 L144.708,75.3012"/>
            <path d="M156.708,82.7012 L144.708,82.7012"/>
            <path d="M156.708,75.3012 L144.708,75.3012"/>
            <path d="M156.708,75.3012 L156.708,82.7012"/>
            <path d="M156.708,82.7012 L203.459,82.7012"/>
            <path d="M203.459,82.7012 L203.459,75.3012"/>
            <path d="M156.708,75.3012 L203.459,75.3012"/>
            <path d="M231.459,82.7013 L203.459,82.7012"/>
            <path d="M231.459,75.3013 L203.459,75.3012"/>
            <path d="M251.939,82.7013 L251.939,75.3013"/>
            <path d="M231.459,75.3013 L251.939,75.3013"/>
            <path d="M231.459,75.3013 L231.459,82.7013"/>
            <path d="M231.459,82.7013 L251.939,82.7013"/>
            <path d="M99.5595,75.3012 L99.5595,82.7012"/>
            <path d="M99.5595,82.7012 L122.368,82.7012"/>
            <path d="M122.368,82.7012 L122.368,75.3012"/>
            <path d="M99.5595,75.3012 L122.368,75.3012"/>
            <path d="M72.4533,82.7012 L60.4533,82.7012"/>
            <path d="M72.4533,75.3012 L60.4533,75.3012"/>
            <path d="M81.5595,82.7012 L81.5595,75.3012"/>
            <path d="M72.4533,75.3012 L81.5595,75.3012"/>
            <path d="M72.4533,75.3012 L72.4533,82.7012"/>
            <path d="M72.4533,82.7012 L81.5595,82.7012"/>
            <path d="M47.9392,82.7012 L60.4533,82.7012"/>
            <path d="M60.4533,82.7012 L60.4533,75.3012"/>
            <path d="M47.9392,75.3012 L60.4533,75.3012"/>
            <path d="M47.9392,82.7012 L47.9392,75.3012"/>
        </g>
        <g id="product-ba09ee0e-d2a3-4205-8c86-80e84e65cb8d" class="IfcWall material-null projection" ifc:name="Wall" ifc:guid="2w2UuEqgD21Oo6WEXEPSkD">
            <path d="M167.939,214.507 L160.539,214.507"/>
            <path d="M160.539,214.507 L160.539,217.901"/>
            <path d="M160.539,217.901 L167.939,217.901"/>
            <path d="M167.939,214.507 L167.939,217.901"/>
            <path d="M160.539,196.507 L167.939,196.507"/>
            <path d="M167.939,193.301 L167.939,196.507"/>
            <path d="M160.539,193.301 L167.939,193.301"/>
            <path d="M160.539,193.301 L160.539,196.507"/>
        </g>
        <g id="product-d92b9332-1b24-4bf9-b936-83a4b9e48219" class="IfcWall material-null projection" ifc:name="Wall" ifc:guid="3PAvCo6oHB_RasWwIvv88P">
            <path d="M195.869,193.301 L195.869,185.901"/>
            <path d="M195.869,185.901 L160.539,185.901"/>
            <path d="M160.539,185.901 L160.539,193.301"/>
            <path d="M195.869,193.301 L160.539,193.301"/>
            <path d="M223.869,185.901 L223.869,193.301"/>
            <path d="M251.939,193.301 L223.869,193.301"/>
            <path d="M251.939,185.901 L251.939,193.301"/>
            <path d="M251.939,185.901 L223.869,185.901"/>
        </g>
        <g id="product-9ddd8c65-0587-466a-b0e3-e78b0adc9d02" class="IfcWall material-null projection" ifc:name="Wall" ifc:guid="2TtOnb1OT6Qh3ZvuiAt9q2">
            <path d="M251.939,82.7013 L251.939,185.901"/>
            <path d="M244.539,82.7013 L251.939,82.7013"/>
            <path d="M244.539,185.901 L244.539,82.7013"/>
            <path d="M251.939,185.901 L244.539,185.901"/>
        </g>
        <g id="product-cdbba013-9615-43bf-925a-affca94f9d8e" class="IfcWall material-null projection" ifc:name="Wall" ifc:guid="3Dkw0JbXL3lv9Qh$ofJvsE">
            <path d="M83.0936,217.901 L111.094,217.901"/>
            <path d="M83.0936,225.301 L111.094,225.301"/>
            <path d="M55.3391,217.901 L55.3391,225.301"/>
            <path d="M83.0936,225.301 L55.3391,225.301"/>
            <path d="M83.0936,225.301 L83.0936,217.901"/>
            <path d="M83.0936,217.901 L55.3391,217.901"/>
            <path d="M167.939,217.901 L111.094,217.901"/>
            <path d="M111.094,217.901 L111.094,225.301"/>
            <path d="M167.939,225.301 L111.094,225.301"/>
            <path d="M167.939,217.901 L167.939,225.301"/>
        </g>
        <g id="product-58286c57-611d-4225-8adf-bd815984c5a2" class="IfcSlab material-null projection" ifc:name="Slab" ifc:guid="1OA6nNOHr29OhVlO5PXCMY">
            <path d="M99.5595,75.3013 L81.5595,75.3013"/>
            <path d="M251.939,225.301 L251.939,193.301"/>
            <path d="M55.3391,225.301 L251.939,225.301"/>
            <path d="M47.9392,75.3013 L47.9392,82.7012"/>
        </g>
        <g id="product-8b366ea7-cf30-4240-810e-7c4344aa7ad8" class="IfcFurniture material-null projection" ifc:name="Furniture" ifc:guid="2BDcwdpp12G84EV4D4gdhO">
            <path d="M77.8161,83.8012 L77.8161,92.8012"/>
            <path d="M62.8161,83.8012 L77.8161,83.8012"/>
            <path d="M62.8161,92.8012 L62.8161,83.8012"/>
            <path d="M77.8161,92.8012 L62.8161,92.8012"/>
            <path d="M62.7161,83.3012 L77.9161,83.3012"/>
            <path d="M62.563,83.3316 L62.7161,83.3012"/>
            <path d="M62.4332,83.4183 L62.563,83.3316"/>
            <path d="M62.3465,83.5481 L62.4332,83.4183"/>
            <path d="M62.3161,83.7012 L62.3465,83.5481"/>
            <path d="M62.3161,92.9012 L62.3161,83.7012"/>
            <path d="M62.3465,93.0543 L62.3161,92.9012"/>
            <path d="M62.4332,93.184 L62.3465,93.0543"/>
            <path d="M62.563,93.2707 L62.4332,93.184"/>
            <path d="M62.7161,93.3012 L62.563,93.2707"/>
            <path d="M77.9161,93.3012 L62.7161,93.3012"/>
            <path d="M78.0691,93.2707 L77.9161,93.3012"/>
            <path d="M78.1989,93.184 L78.0691,93.2707"/>
            <path d="M78.2856,93.0543 L78.1989,93.184"/>
            <path d="M78.3161,92.9012 L78.2856,93.0543"/>
            <path d="M78.3161,83.7012 L78.3161,92.9012"/>
            <path d="M78.2856,83.5481 L78.3161,83.7012"/>
            <path d="M78.1989,83.4183 L78.2856,83.5481"/>
            <path d="M78.0691,83.3316 L78.1989,83.4183"/>
            <path d="M77.9161,83.3012 L78.0691,83.3316"/>
            <path d="M77.3161,91.9012 L77.3161,85.7012"/>
            <path d="M77.2856,92.0543 L77.3161,91.9012"/>
            <path d="M77.1989,92.184 L77.2856,92.0543"/>
            <path d="M77.0691,92.2707 L77.1989,92.184"/>
            <path d="M76.9161,92.3012 L77.0691,92.2707"/>
            <path d="M71.0161,92.3012 L76.9161,92.3012"/>
            <path d="M70.863,92.2707 L71.0161,92.3012"/>
            <path d="M70.7332,92.184 L70.863,92.2707"/>
            <path d="M70.6465,92.0543 L70.7332,92.184"/>
            <path d="M70.6161,91.9012 L70.6465,92.0543"/>
            <path d="M70.6161,85.7012 L70.6161,91.9012"/>
            <path d="M70.6465,85.5481 L70.6161,85.7012"/>
            <path d="M70.7332,85.4183 L70.6465,85.5481"/>
            <path d="M70.863,85.3316 L70.7332,85.4183"/>
            <path d="M71.0161,85.3012 L70.863,85.3316"/>
            <path d="M76.9161,85.3012 L71.0161,85.3012"/>
            <path d="M77.0691,85.3316 L76.9161,85.3012"/>
            <path d="M77.1989,85.4183 L77.0691,85.3316"/>
            <path d="M77.2856,85.5481 L77.1989,85.4183"/>
            <path d="M77.3161,85.7012 L77.2856,85.5481"/>
            <path d="M69.7691,92.2707 L69.8989,92.184"/>
            <path d="M69.6161,92.3012 L69.7691,92.2707"/>
            <path d="M63.7161,92.3012 L69.6161,92.3012"/>
            <path d="M63.563,92.2707 L63.7161,92.3012"/>
            <path d="M63.4332,92.184 L63.563,92.2707"/>
            <path d="M63.3465,92.0543 L63.4332,92.184"/>
            <path d="M63.3161,91.9012 L63.3465,92.0543"/>
            <path d="M63.3161,85.7012 L63.3161,91.9012"/>
            <path d="M63.3465,85.5481 L63.3161,85.7012"/>
            <path d="M63.4332,85.4183 L63.3465,85.5481"/>
            <path d="M63.563,85.3316 L63.4332,85.4183"/>
            <path d="M63.7161,85.3012 L63.563,85.3316"/>
            <path d="M69.6161,85.3012 L63.7161,85.3012"/>
            <path d="M69.7691,85.3316 L69.6161,85.3012"/>
            <path d="M69.8989,85.4183 L69.7691,85.3316"/>
            <path d="M69.9856,85.5481 L69.8989,85.4183"/>
            <path d="M70.0161,85.7012 L69.9856,85.5481"/>
            <path d="M70.0161,91.9012 L70.0161,85.7012"/>
            <path d="M69.9856,92.0543 L70.0161,91.9012"/>
            <path d="M69.8989,92.184 L69.9856,92.0543"/>
            <path d="M55.3392,144.701 L55.3392,82.7012"/>
            <path d="M103.339,144.701 L55.3392,144.701"/>
            <path d="M103.339,132.701 L103.339,144.701"/>
            <path d="M67.3392,132.701 L103.339,132.701"/>
            <path d="M67.3392,94.7012 L67.3392,132.701"/>
            <path d="M79.3392,94.7012 L67.3392,94.7012"/>
            <path d="M79.3392,82.7012 L79.3392,94.7012"/>
            <path d="M79.3392,93.7012 L79.3392,82.7012"/>
            <path d="M66.3392,93.7012 L79.3392,93.7012"/>
        </g>
        <g id="product-7e8311fe-934f-485a-a096-38a2d80a6a7b" class="IfcFurniture material-null projection" ifc:name="Furniture" ifc:guid="1_Wn7_aqz8Mg2MEABO2cfx">
            <path d="M123.446,172.538 L123.809,169.547"/>
            <path d="M122.378,175.356 L123.446,172.538"/>
            <path d="M120.666,177.836 L122.378,175.356"/>
            <path d="M118.41,179.834 L120.666,177.836"/>
            <path d="M115.742,181.235 L118.41,179.834"/>
            <path d="M112.816,181.956 L115.742,181.235"/>
            <path d="M109.803,181.956 L112.816,181.956"/>
            <path d="M106.877,181.235 L109.803,181.956"/>
            <path d="M104.209,179.834 L106.877,181.235"/>
            <path d="M101.953,177.836 L104.209,179.834"/>
            <path d="M100.241,175.356 L101.953,177.836"/>
            <path d="M99.1726,172.538 L100.241,175.356"/>
            <path d="M98.8093,169.547 L99.1726,172.538"/>
            <path d="M99.1726,166.556 L98.8093,169.547"/>
            <path d="M100.241,163.738 L99.1726,166.556"/>
            <path d="M101.953,161.258 L100.241,163.738"/>
            <path d="M104.209,159.26 L101.953,161.258"/>
            <path d="M106.877,157.859 L104.209,159.26"/>
            <path d="M109.803,157.138 L106.877,157.859"/>
            <path d="M112.816,157.138 L109.803,157.138"/>
            <path d="M115.742,157.859 L112.816,157.138"/>
            <path d="M118.41,159.26 L115.742,157.859"/>
            <path d="M120.666,161.258 L118.41,159.26"/>
            <path d="M122.378,163.738 L120.666,161.258"/>
            <path d="M123.446,166.556 L122.378,163.738"/>
            <path d="M123.809,169.547 L123.446,166.556"/>
            <path d="M97.7539,158.026 L101.218,160.026"/>
            <path d="M97.0971,157.739 L97.7539,158.026"/>
            <path d="M96.393,157.606 L97.0971,157.739"/>
            <path d="M95.677,157.633 L96.393,157.606"/>
            <path d="M94.9848,157.818 L95.677,157.633"/>
            <path d="M94.3513,158.153 L94.9848,157.818"/>
            <path d="M93.8081,158.62 L94.3513,158.153"/>
            <path d="M93.3826,159.197 L93.8081,158.62"/>
            <path d="M93.0961,159.854 L93.3826,159.197"/>
            <path d="M92.9628,160.558 L93.0961,159.854"/>
            <path d="M92.9896,161.274 L92.9628,160.558"/>
            <path d="M93.1751,161.966 L92.9896,161.274"/>
            <path d="M93.5099,162.6 L93.1751,161.966"/>
            <path d="M93.9773,163.143 L93.5099,162.6"/>
            <path d="M94.5539,163.568 L93.9773,163.143"/>
            <path d="M98.018,165.568 L94.5539,163.568"/>
            <path d="M98.1539,157.333 L101.618,159.333"/>
            <path d="M97.3329,156.975 L98.1539,157.333"/>
            <path d="M96.4528,156.808 L97.3329,156.975"/>
            <path d="M95.5577,156.842 L96.4528,156.808"/>
            <path d="M94.6925,157.074 L95.5577,156.842"/>
            <path d="M93.9006,157.492 L94.6925,157.074"/>
            <path d="M93.2217,158.076 L93.9006,157.492"/>
            <path d="M92.6898,158.797 L93.2217,158.076"/>
            <path d="M92.3316,159.618 L92.6898,158.797"/>
            <path d="M92.1651,160.498 L92.3316,159.618"/>
            <path d="M92.1986,161.393 L92.1651,160.498"/>
            <path d="M92.4304,162.258 L92.1986,161.393"/>
            <path d="M92.8489,163.05 L92.4304,162.258"/>
            <path d="M93.4332,163.729 L92.8489,163.05"/>
            <path d="M94.1539,164.261 L93.4332,163.729"/>
            <path d="M97.618,166.261 L94.1539,164.261"/>
            <path d="M97.618,166.261 L101.618,159.333"/>
            <path d="M94.5539,175.526 L98.018,173.526"/>
            <path d="M93.9773,175.951 L94.5539,175.526"/>
            <path d="M93.5099,176.494 L93.9773,175.951"/>
            <path d="M93.1751,177.128 L93.5099,176.494"/>
            <path d="M92.9896,177.82 L93.1751,177.128"/>
            <path d="M92.9628,178.536 L92.9896,177.82"/>
            <path d="M93.0961,179.24 L92.9628,178.536"/>
            <path d="M93.3826,179.897 L93.0961,179.24"/>
            <path d="M93.8081,180.474 L93.3826,179.897"/>
            <path d="M94.3513,180.941 L93.8081,180.474"/>
            <path d="M94.9848,181.276 L94.3513,180.941"/>
            <path d="M95.677,181.461 L94.9848,181.276"/>
            <path d="M96.393,181.488 L95.677,181.461"/>
            <path d="M97.0971,181.355 L96.393,181.488"/>
            <path d="M97.7539,181.068 L97.0971,181.355"/>
            <path d="M101.218,179.068 L97.7539,181.068"/>
            <path d="M94.1539,174.833 L97.618,172.833"/>
            <path d="M93.4332,175.365 L94.1539,174.833"/>
            <path d="M92.8489,176.044 L93.4332,175.365"/>
            <path d="M92.4304,176.836 L92.8489,176.044"/>
            <path d="M92.1986,177.701 L92.4304,176.836"/>
            <path d="M92.1651,178.596 L92.1986,177.701"/>
            <path d="M92.3316,179.476 L92.1651,178.596"/>
            <path d="M92.6898,180.297 L92.3316,179.476"/>
            <path d="M93.2217,181.018 L92.6898,180.297"/>
            <path d="M93.9006,181.602 L93.2217,181.018"/>
            <path d="M94.6925,182.021 L93.9006,181.602"/>
            <path d="M95.5577,182.252 L94.6925,182.021"/>
            <path d="M96.4528,182.286 L95.5577,182.252"/>
            <path d="M97.3329,182.119 L96.4528,182.286"/>
            <path d="M98.1539,181.761 L97.3329,182.119"/>
            <path d="M101.618,179.761 L98.1539,181.761"/>
            <path d="M101.618,179.761 L97.618,172.833"/>
            <path d="M108.109,187.047 L108.109,183.047"/>
            <path d="M108.202,187.813 L108.109,187.047"/>
            <path d="M108.476,188.534 L108.202,187.813"/>
            <path d="M108.914,189.169 L108.476,188.534"/>
            <path d="M109.492,189.681 L108.914,189.169"/>
            <path d="M110.175,190.039 L109.492,189.681"/>
            <path d="M110.924,190.224 L110.175,190.039"/>
            <path d="M111.695,190.224 L110.924,190.224"/>
            <path d="M112.444,190.039 L111.695,190.224"/>
            <path d="M113.127,189.681 L112.444,190.039"/>
            <path d="M113.705,189.169 L113.127,189.681"/>
            <path d="M114.143,188.534 L113.705,189.169"/>
            <path d="M114.416,187.813 L114.143,188.534"/>
            <path d="M114.509,187.047 L114.416,187.813"/>
            <path d="M114.509,183.047 L114.509,187.047"/>
            <path d="M107.309,187.047 L107.309,183.047"/>
            <path d="M107.41,187.937 L107.309,187.047"/>
            <path d="M107.705,188.783 L107.41,187.937"/>
            <path d="M108.182,189.541 L107.705,188.783"/>
            <path d="M108.815,190.174 L108.182,189.541"/>
            <path d="M109.574,190.651 L108.815,190.174"/>
            <path d="M110.419,190.947 L109.574,190.651"/>
            <path d="M111.309,191.047 L110.419,190.947"/>
            <path d="M112.199,190.947 L111.309,191.047"/>
            <path d="M113.045,190.651 L112.199,190.947"/>
            <path d="M113.803,190.174 L113.045,190.651"/>
            <path d="M114.437,189.541 L113.803,190.174"/>
            <path d="M114.913,188.783 L114.437,189.541"/>
            <path d="M115.209,187.937 L114.913,188.783"/>
            <path d="M115.309,187.047 L115.209,187.937"/>
            <path d="M115.309,183.047 L115.309,187.047"/>
            <path d="M115.309,183.047 L107.309,183.047"/>
            <path d="M124.865,181.068 L121.401,179.068"/>
            <path d="M125.522,181.355 L124.865,181.068"/>
            <path d="M126.226,181.488 L125.522,181.355"/>
            <path d="M126.942,181.461 L126.226,181.488"/>
            <path d="M127.634,181.276 L126.942,181.461"/>
            <path d="M128.267,180.941 L127.634,181.276"/>
            <path d="M128.811,180.474 L128.267,180.941"/>
            <path d="M129.236,179.897 L128.811,180.474"/>
            <path d="M129.523,179.24 L129.236,179.897"/>
            <path d="M129.656,178.536 L129.523,179.24"/>
            <path d="M129.629,177.82 L129.656,178.536"/>
            <path d="M129.444,177.128 L129.629,177.82"/>
            <path d="M129.109,176.494 L129.444,177.128"/>
            <path d="M128.641,175.951 L129.109,176.494"/>
            <path d="M128.065,175.526 L128.641,175.951"/>
            <path d="M124.601,173.526 L128.065,175.526"/>
            <path d="M124.465,181.761 L121.001,179.761"/>
            <path d="M125.352,182.139 L124.465,181.761"/>
            <path d="M126.304,182.294 L125.352,182.139"/>
            <path d="M127.265,182.216 L126.304,182.294"/>
            <path d="M128.18,181.911 L127.265,182.216"/>
            <path d="M128.995,181.395 L128.18,181.911"/>
            <path d="M129.663,180.7 L128.995,181.395"/>
            <path d="M130.145,179.865 L129.663,180.7"/>
            <path d="M130.413,178.939 L130.145,179.865"/>
            <path d="M130.452,177.975 L130.413,178.939"/>
            <path d="M130.259,177.03 L130.452,177.975"/>
            <path d="M129.846,176.159 L130.259,177.03"/>
            <path d="M129.236,175.412 L129.846,176.159"/>
            <path d="M128.465,174.833 L129.236,175.412"/>
            <path d="M125.001,172.833 L128.465,174.833"/>
            <path d="M125.001,172.833 L121.001,179.761"/>
            <path d="M128.065,163.568 L124.601,165.568"/>
            <path d="M128.641,163.143 L128.065,163.568"/>
            <path d="M129.109,162.6 L128.641,163.143"/>
            <path d="M129.444,161.966 L129.109,162.6"/>
            <path d="M129.629,161.274 L129.444,161.966"/>
            <path d="M129.656,160.558 L129.629,161.274"/>
            <path d="M129.523,159.854 L129.656,160.558"/>
            <path d="M129.236,159.197 L129.523,159.854"/>
            <path d="M128.811,158.62 L129.236,159.197"/>
            <path d="M128.267,158.153 L128.811,158.62"/>
            <path d="M127.634,157.818 L128.267,158.153"/>
            <path d="M126.942,157.633 L127.634,157.818"/>
            <path d="M126.226,157.606 L126.942,157.633"/>
            <path d="M125.522,157.739 L126.226,157.606"/>
            <path d="M124.865,158.026 L125.522,157.739"/>
            <path d="M121.401,160.026 L124.865,158.026"/>
            <path d="M128.465,164.261 L125.001,166.261"/>
            <path d="M129.185,163.729 L128.465,164.261"/>
            <path d="M129.77,163.05 L129.185,163.729"/>
            <path d="M130.188,162.258 L129.77,163.05"/>
            <path d="M130.42,161.393 L130.188,162.258"/>
            <path d="M130.454,160.498 L130.42,161.393"/>
            <path d="M130.287,159.618 L130.454,160.498"/>
            <path d="M129.929,158.797 L130.287,159.618"/>
            <path d="M129.397,158.076 L129.929,158.797"/>
            <path d="M128.718,157.492 L129.397,158.076"/>
            <path d="M127.926,157.074 L128.718,157.492"/>
            <path d="M127.061,156.842 L127.926,157.074"/>
            <path d="M126.166,156.808 L127.061,156.842"/>
            <path d="M125.286,156.975 L126.166,156.808"/>
            <path d="M124.465,157.333 L125.286,156.975"/>
            <path d="M121.001,159.333 L124.465,157.333"/>
            <path d="M121.001,159.333 L125.001,166.261"/>
            <path d="M114.509,152.047 L114.509,156.047"/>
            <path d="M114.416,151.281 L114.509,152.047"/>
            <path d="M114.143,150.56 L114.416,151.281"/>
            <path d="M113.705,149.925 L114.143,150.56"/>
            <path d="M113.127,149.414 L113.705,149.925"/>
            <path d="M112.444,149.055 L113.127,149.414"/>
            <path d="M111.695,148.87 L112.444,149.055"/>
            <path d="M110.924,148.87 L111.695,148.87"/>
            <path d="M110.175,149.055 L110.924,148.87"/>
            <path d="M109.492,149.414 L110.175,149.055"/>
            <path d="M108.914,149.925 L109.492,149.414"/>
            <path d="M108.476,150.56 L108.914,149.925"/>
            <path d="M108.202,151.281 L108.476,150.56"/>
            <path d="M108.109,152.047 L108.202,151.281"/>
            <path d="M108.109,156.047 L108.109,152.047"/>
            <path d="M115.309,152.047 L115.309,156.047"/>
            <path d="M115.209,151.157 L115.309,152.047"/>
            <path d="M114.913,150.312 L115.209,151.157"/>
            <path d="M114.437,149.553 L114.913,150.312"/>
            <path d="M113.803,148.92 L114.437,149.553"/>
            <path d="M113.045,148.443 L113.803,148.92"/>
            <path d="M112.199,148.147 L113.045,148.443"/>
            <path d="M111.309,148.047 L112.199,148.147"/>
            <path d="M110.419,148.147 L111.309,148.047"/>
            <path d="M109.574,148.443 L110.419,148.147"/>
            <path d="M108.815,148.92 L109.574,148.443"/>
            <path d="M108.182,149.553 L108.815,148.92"/>
            <path d="M107.705,150.312 L108.182,149.553"/>
            <path d="M107.41,151.157 L107.705,150.312"/>
            <path d="M107.309,152.047 L107.41,151.157"/>
            <path d="M107.309,156.047 L107.309,152.047"/>
            <path d="M107.309,156.047 L115.309,156.047"/>
        </g>
        <g id="product-13b9b81b-dd5a-47f8-b49c-e3a0db7c5fa8" class="IfcFurniture material-null projection" ifc:name="Furniture" ifc:guid="0JkRWRtLf7_BISuw3RV5_e">
            <path d="M55.3391,201.901 L55.3391,217.901"/>
            <path d="M85.3391,201.901 L55.3391,201.901"/>
            <path d="M85.3391,217.901 L85.3391,201.901"/>
        </g>
        <g id="product-020cc593-0a78-4e79-a8ad-2ce232cee7df" class="IfcFurniture material-null projection" ifc:name="Furniture" ifc:guid="023CMJ2dXEUQYjBE8opkVV">
            <path d="M244.539,95.508 L241.039,95.508"/>
            <path d="M244.539,101.291 L244.539,95.508"/>
            <path d="M241.039,130.508 L244.539,130.508"/>
            <path d="M241.039,95.508 L241.039,130.508"/>
            <path d="M241.039,118.841 L226.539,118.841"/>
            <path d="M241.039,130.508 L241.039,118.841"/>
            <path d="M226.539,130.508 L241.039,130.508"/>
            <path d="M226.539,118.841 L226.539,130.508"/>
            <path d="M241.039,107.175 L226.539,107.175"/>
            <path d="M241.039,118.841 L241.039,107.175"/>
            <path d="M226.539,118.841 L241.039,118.841"/>
            <path d="M226.539,107.175 L226.539,118.841"/>
            <path d="M241.039,95.508 L226.539,95.508"/>
            <path d="M241.039,107.175 L241.039,95.508"/>
            <path d="M226.539,107.175 L241.039,107.175"/>
            <path d="M226.539,95.508 L226.539,107.175"/>
            <path d="M244.539,130.508 L226.539,130.508"/>
            <path d="M226.539,134.008 L244.539,134.008"/>
            <path d="M226.539,130.508 L226.539,134.008"/>
            <path d="M244.539,92.008 L226.539,92.008"/>
            <path d="M244.539,95.508 L244.539,92.008"/>
            <path d="M226.539,95.508 L244.539,95.508"/>
            <path d="M226.539,92.008 L226.539,95.508"/>
        </g>
        <g id="product-cde592af-6c7a-43a5-bebb-ac48581d0f54" class="IfcFurniture material-null projection" ifc:name="Furniture" ifc:guid="3DvPAlR7f3fRwxh4XO7GzK">
            <path d="M219.829,159.033 L218.779,155.694"/>
            <path d="M209.336,162.333 L219.829,159.033"/>
            <path d="M208.286,158.994 L209.336,162.333"/>
            <path d="M218.779,155.694 L208.286,158.994"/>
            <path d="M218.779,155.694 L214.43,141.862"/>
            <path d="M208.286,158.994 L218.779,155.694"/>
            <path d="M203.936,145.162 L208.286,158.994"/>
            <path d="M214.43,141.862 L203.936,145.162"/>
            <path d="M209.336,162.333 L203.936,145.162"/>
            <path d="M205.997,163.383 L209.336,162.333"/>
            <path d="M200.598,146.211 L205.997,163.383"/>
            <path d="M203.936,145.162 L200.598,146.211"/>
            <path d="M223.168,157.983 L217.769,140.812"/>
            <path d="M219.829,159.033 L223.168,157.983"/>
            <path d="M214.43,141.862 L219.829,159.033"/>
            <path d="M217.769,140.812 L214.43,141.862"/>
        </g>
        <g id="product-cc06fc21-6dbc-44c5-bcc7-7aa17846b246" class="IfcDoor material-null projection" ifc:name="Door" ifc:guid="3C1lmXRRn4nRp7Ug5uHh96">
            <path d="M223.369,178.801 L223.369,192.301"/>
            <path d="M222.669,178.801 L223.369,178.801"/>
            <path d="M222.669,192.301 L222.669,178.801"/>
            <path d="M223.369,192.301 L222.669,192.301"/>
            <path d="M196.369,178.801 L196.369,192.301"/>
            <path d="M197.069,178.801 L196.369,178.801"/>
            <path d="M197.069,192.301 L197.069,178.801"/>
            <path d="M196.369,192.301 L197.069,192.301"/>
            <path d="M222.869,193.301 L223.869,193.301"/>
            <path d="M222.869,192.801 L222.869,193.301"/>
            <path d="M223.369,192.801 L222.869,192.801"/>
            <path d="M223.369,192.301 L223.369,192.801"/>
            <path d="M223.869,192.301 L223.369,192.301"/>
            <path d="M196.869,193.301 L195.869,193.301"/>
            <path d="M196.869,192.801 L196.869,193.301"/>
            <path d="M196.369,192.801 L196.869,192.801"/>
            <path d="M196.369,192.301 L196.369,192.801"/>
            <path d="M195.869,192.301 L196.369,192.301"/>
            <path d="M210.115,189.668 L209.869,192.301"/>
            <path d="M210.843,187.135 L210.115,189.668"/>
            <path d="M212.313,184.366 L210.843,187.135"/>
            <path d="M214.356,182.036 L212.313,184.366"/>
            <path d="M216.858,180.273 L214.356,182.036"/>
            <path d="M219.681,179.174 L216.858,180.273"/>
            <path d="M222.669,178.801 L219.681,179.174"/>
            <path d="M198.507,178.887 L197.069,178.801"/>
            <path d="M199.926,179.142 L198.507,178.887"/>
            <path d="M202.488,180.071 L199.926,179.142"/>
            <path d="M204.808,181.548 L202.488,180.071"/>
            <path d="M206.78,183.507 L204.808,181.548"/>
            <path d="M208.317,185.86 L206.78,183.507"/>
            <path d="M209.432,188.807 L208.317,185.86"/>
            <path d="M209.869,192.301 L209.432,188.807"/>
        </g>
        <g id="product-943ec8f2-1abd-4744-8d35-91aa4d1fef76" class="IfcWindow material-null projection" ifc:name="Window" ifc:guid="2KFiZo6hr7H8qraQfD7_zs">
            <path d="M60.9533,77.8012 L60.9533,77.1012"/>
            <path d="M61.6533,77.8012 L60.9533,77.8012"/>
            <path d="M61.6533,77.1012 L61.6533,77.8012"/>
            <path d="M60.9533,77.1012 L61.6533,77.1012"/>
            <path d="M71.9533,77.8012 L71.9533,77.1012"/>
            <path d="M71.2533,77.8012 L71.9533,77.8012"/>
            <path d="M71.2533,77.1012 L71.2533,77.8012"/>
            <path d="M71.9533,77.1012 L71.2533,77.1012"/>
            <path d="M61.4533,76.3012 L60.4533,76.3012"/>
            <path d="M61.4533,77.1012 L61.4533,76.3012"/>
            <path d="M60.9533,77.1012 L61.4533,77.1012"/>
            <path d="M60.9533,77.3012 L60.9533,77.1012"/>
            <path d="M60.4533,77.3012 L60.9533,77.3012"/>
            <path d="M71.4533,76.3012 L72.4533,76.3012"/>
            <path d="M71.4533,77.1012 L71.4533,76.3012"/>
            <path d="M71.9533,77.1012 L71.4533,77.1012"/>
            <path d="M71.9533,77.3012 L71.9533,77.1012"/>
            <path d="M72.4533,77.3012 L71.9533,77.3012"/>
            <path d="M71.2533,77.4512 L61.6533,77.4512"/>
            <path d="M71.2533,77.8012 L61.6533,77.8012"/>
            <path d="M71.2533,77.1012 L61.6533,77.1012"/>
            <path d="M71.4533,76.3012 L61.4533,76.3012"/>
        </g>
        <g id="product-5a2e0fbc-285b-416e-9837-0441079d880d" class="IfcWindow material-null projection" ifc:name="Window" ifc:guid="1QBW_yA5j1RfWt1447dOWD">
            <path d="M122.868,77.8012 L122.868,77.1012"/>
            <path d="M123.568,77.8012 L122.868,77.8012"/>
            <path d="M123.568,77.1012 L123.568,77.8012"/>
            <path d="M122.868,77.1012 L123.568,77.1012"/>
            <path d="M133.868,77.8012 L133.868,77.1012"/>
            <path d="M133.168,77.8012 L133.868,77.8012"/>
            <path d="M133.168,77.1012 L133.168,77.8012"/>
            <path d="M133.868,77.1012 L133.168,77.1012"/>
            <path d="M123.368,76.3012 L122.368,76.3012"/>
            <path d="M123.368,77.1012 L123.368,76.3012"/>
            <path d="M122.868,77.1012 L123.368,77.1012"/>
            <path d="M122.868,77.3012 L122.868,77.1012"/>
            <path d="M122.368,77.3012 L122.868,77.3012"/>
            <path d="M133.368,76.3012 L134.368,76.3012"/>
            <path d="M133.368,77.1012 L133.368,76.3012"/>
            <path d="M133.868,77.1012 L133.368,77.1012"/>
            <path d="M133.868,77.3012 L133.868,77.1012"/>
            <path d="M134.368,77.3012 L133.868,77.3012"/>
            <path d="M133.168,77.4512 L123.568,77.4512"/>
            <path d="M133.168,77.8012 L123.568,77.8012"/>
            <path d="M133.168,77.1012 L123.568,77.1012"/>
            <path d="M133.368,76.3012 L123.368,76.3012"/>
        </g>
        <g id="product-3668702a-9a63-4740-aa70-75eb87e84a57" class="IfcWindow material-null projection" ifc:name="Window" ifc:guid="0sQ70gccD7GAfmTUk7w4fN">
            <path d="M145.208,77.8012 L145.208,77.1012"/>
            <path d="M145.908,77.8012 L145.208,77.8012"/>
            <path d="M145.908,77.1012 L145.908,77.8012"/>
            <path d="M145.208,77.1012 L145.908,77.1012"/>
            <path d="M156.208,77.8012 L156.208,77.1012"/>
            <path d="M155.508,77.8012 L156.208,77.8012"/>
            <path d="M155.508,77.1012 L155.508,77.8012"/>
            <path d="M156.208,77.1012 L155.508,77.1012"/>
            <path d="M145.708,76.3012 L144.708,76.3012"/>
            <path d="M145.708,77.1012 L145.708,76.3012"/>
            <path d="M145.208,77.1012 L145.708,77.1012"/>
            <path d="M145.208,77.3012 L145.208,77.1012"/>
            <path d="M144.708,77.3012 L145.208,77.3012"/>
            <path d="M155.708,76.3012 L156.708,76.3012"/>
            <path d="M155.708,77.1012 L155.708,76.3012"/>
            <path d="M156.208,77.1012 L155.708,77.1012"/>
            <path d="M156.208,77.3012 L156.208,77.1012"/>
            <path d="M156.708,77.3012 L156.208,77.3012"/>
            <path d="M155.508,77.4512 L145.908,77.4512"/>
            <path d="M155.508,77.8012 L145.908,77.8012"/>
            <path d="M155.508,77.1012 L145.908,77.1012"/>
            <path d="M155.708,76.3012 L145.708,76.3012"/>
        </g>
        <g id="product-96e7594e-9e3d-43a7-8538-e7330a618984" class="IfcWindow material-null projection" ifc:name="Window" ifc:guid="2MvrbEdZr3fuKuvpCAOOc4">
            <path d="M203.959,77.8012 L203.959,77.1012"/>
            <path d="M204.659,77.8012 L203.959,77.8012"/>
            <path d="M204.659,77.1012 L204.659,77.8012"/>
            <path d="M203.959,77.1012 L204.659,77.1012"/>
            <path d="M217.459,77.8013 L217.459,77.1013"/>
            <path d="M216.759,77.8013 L217.459,77.8013"/>
            <path d="M216.759,77.1013 L216.759,77.8013"/>
            <path d="M217.459,77.1013 L216.759,77.1013"/>
            <path d="M204.459,76.3012 L203.459,76.3012"/>
            <path d="M204.459,77.1012 L204.459,76.3012"/>
            <path d="M203.959,77.1012 L204.459,77.1012"/>
            <path d="M203.959,77.3012 L203.959,77.1012"/>
            <path d="M203.459,77.3012 L203.959,77.3012"/>
            <path d="M217.459,77.8013 L217.459,77.1013"/>
            <path d="M218.159,77.8013 L217.459,77.8013"/>
            <path d="M218.159,77.1013 L218.159,77.8013"/>
            <path d="M217.459,77.1013 L218.159,77.1013"/>
            <path d="M230.959,77.8013 L230.959,77.1013"/>
            <path d="M230.259,77.8013 L230.959,77.8013"/>
            <path d="M230.259,77.1013 L230.259,77.8013"/>
            <path d="M230.959,77.1013 L230.259,77.1013"/>
            <path d="M230.459,76.3013 L231.459,76.3013"/>
            <path d="M230.459,77.1013 L230.459,76.3013"/>
            <path d="M230.959,77.1013 L230.459,77.1013"/>
            <path d="M230.959,77.3013 L230.959,77.1013"/>
            <path d="M231.459,77.3013 L230.959,77.3013"/>
            <path d="M216.759,77.4513 L204.659,77.4512"/>
            <path d="M216.759,77.8013 L204.659,77.8012"/>
            <path d="M216.759,77.1013 L204.659,77.1012"/>
            <path d="M216.959,76.3013 L217.459,76.3013"/>
            <path d="M216.959,77.1013 L216.959,76.3013"/>
            <path d="M217.459,77.1013 L216.959,77.1013"/>
            <path d="M217.459,77.3013 L217.459,77.1013"/>
            <path d="M216.959,76.3013 L204.459,76.3012"/>
            <path d="M230.259,77.4513 L218.159,77.4513"/>
            <path d="M230.259,77.8013 L218.159,77.8013"/>
            <path d="M230.259,77.1013 L218.159,77.1013"/>
            <path d="M217.959,76.3013 L217.459,76.3013"/>
            <path d="M217.959,77.1013 L217.959,76.3013"/>
            <path d="M217.459,77.1013 L217.959,77.1013"/>
            <path d="M217.459,77.3013 L217.459,77.1013"/>
            <path d="M230.459,76.3013 L217.959,76.3013"/>
        </g>
        <g id="product-bc1e6328-c5dc-4d45-b75f-e5f7a7679edd" class="IfcWindow material-null projection" ifc:name="Window" ifc:guid="2y7cCenTnDHRTVvVUdPvxT">
            <path d="M110.594,222.801 L110.594,223.501"/>
            <path d="M109.894,222.801 L110.594,222.801"/>
            <path d="M109.894,223.501 L109.894,222.801"/>
            <path d="M110.594,223.501 L109.894,223.501"/>
            <path d="M97.0936,222.801 L97.0936,223.501"/>
            <path d="M97.7936,222.801 L97.0936,222.801"/>
            <path d="M97.7936,223.501 L97.7936,222.801"/>
            <path d="M97.0936,223.501 L97.7936,223.501"/>
            <path d="M110.094,224.301 L111.094,224.301"/>
            <path d="M110.094,223.501 L110.094,224.301"/>
            <path d="M110.594,223.501 L110.094,223.501"/>
            <path d="M110.594,223.301 L110.594,223.501"/>
            <path d="M111.094,223.301 L110.594,223.301"/>
            <path d="M97.0936,222.801 L97.0936,223.501"/>
            <path d="M96.3936,222.801 L97.0936,222.801"/>
            <path d="M96.3936,223.501 L96.3936,222.801"/>
            <path d="M97.0936,223.501 L96.3936,223.501"/>
            <path d="M83.5936,222.801 L83.5936,223.501"/>
            <path d="M84.2936,222.801 L83.5936,222.801"/>
            <path d="M84.2936,223.501 L84.2936,222.801"/>
            <path d="M83.5936,223.501 L84.2936,223.501"/>
            <path d="M84.0936,224.301 L83.0936,224.301"/>
            <path d="M84.0936,223.501 L84.0936,224.301"/>
            <path d="M83.5936,223.501 L84.0936,223.501"/>
            <path d="M83.5936,223.301 L83.5936,223.501"/>
            <path d="M83.0936,223.301 L83.5936,223.301"/>
            <path d="M97.7936,223.151 L109.894,223.151"/>
            <path d="M97.7936,222.801 L109.894,222.801"/>
            <path d="M97.7936,223.501 L109.894,223.501"/>
            <path d="M97.5936,224.301 L97.0936,224.301"/>
            <path d="M97.5936,223.501 L97.5936,224.301"/>
            <path d="M97.0936,223.501 L97.5936,223.501"/>
            <path d="M97.0936,223.301 L97.0936,223.501"/>
            <path d="M97.5936,224.301 L110.094,224.301"/>
            <path d="M84.2936,223.151 L96.3936,223.151"/>
            <path d="M84.2936,222.801 L96.3936,222.801"/>
            <path d="M84.2936,223.501 L96.3936,223.501"/>
            <path d="M96.5936,224.301 L97.0936,224.301"/>
            <path d="M96.5936,223.501 L96.5936,224.301"/>
            <path d="M97.0936,223.501 L96.5936,223.501"/>
            <path d="M97.0936,223.301 L97.0936,223.501"/>
            <path d="M84.0936,224.301 L96.5936,224.301"/>
        </g>
        <g id="product-52d6893b-e0a9-41d1-b362-16cfea33fd0b" class="IfcDoor material-null projection" ifc:name="Door" ifc:guid="1IreaxuAb1qRDY5i$gC$qB">
            <path d="M142.399,104.701 L142.399,121.701"/>
            <path d="M143.099,104.701 L142.399,104.701"/>
            <path d="M143.099,121.701 L143.099,104.701"/>
            <path d="M142.399,121.701 L143.099,121.701"/>
            <path d="M158.899,122.701 L159.899,122.701"/>
            <path d="M158.899,122.201 L158.899,122.701"/>
            <path d="M159.399,122.201 L158.899,122.201"/>
            <path d="M159.399,121.701 L159.399,122.201"/>
            <path d="M159.899,121.701 L159.399,121.701"/>
            <path d="M142.899,122.701 L141.899,122.701"/>
            <path d="M142.899,122.201 L142.899,122.701"/>
            <path d="M142.399,122.201 L142.899,122.201"/>
            <path d="M142.399,121.701 L142.399,122.201"/>
            <path d="M141.899,121.701 L142.399,121.701"/>
            <path d="M146.279,105.028 L143.099,104.701"/>
            <path d="M149.337,105.995 L146.279,105.028"/>
            <path d="M152.68,107.948 L149.337,105.995"/>
            <path d="M155.494,110.661 L152.68,107.948"/>
            <path d="M157.623,113.983 L155.494,110.661"/>
            <path d="M158.949,117.733 L157.623,113.983"/>
            <path d="M159.399,121.701 L158.949,117.733"/>
        </g>
        <g id="product-56bae651-0be7-4db4-80d5-b9f283ddb0b2" class="IfcDoor material-null projection" ifc:name="Door" ifc:guid="1MkkPH2_TDj83LkVA3tR2o">
            <path d="M99.0595,96.6926 L99.0595,79.6926"/>
            <path d="M98.3595,96.6926 L99.0595,96.6926"/>
            <path d="M98.3595,79.6926 L98.3595,96.6926"/>
            <path d="M99.0595,79.6926 L98.3595,79.6926"/>
            <path d="M82.5595,78.6926 L81.5595,78.6926"/>
            <path d="M82.5595,79.1926 L82.5595,78.6926"/>
            <path d="M82.0595,79.1926 L82.5595,79.1926"/>
            <path d="M82.0595,79.6926 L82.0595,79.1926"/>
            <path d="M81.5595,79.6926 L82.0595,79.6926"/>
            <path d="M98.5595,78.6926 L99.5595,78.6926"/>
            <path d="M98.5595,79.1926 L98.5595,78.6926"/>
            <path d="M99.0595,79.1926 L98.5595,79.1926"/>
            <path d="M99.0595,79.6926 L99.0595,79.1926"/>
            <path d="M99.5595,79.6926 L99.0595,79.6926"/>
            <path d="M95.1795,96.366 L98.3595,96.6926"/>
            <path d="M92.1217,95.3986 L95.1795,96.366"/>
            <path d="M88.7786,93.4459 L92.1217,95.3986"/>
            <path d="M85.9649,90.7332 L88.7786,93.4459"/>
            <path d="M83.8361,87.4105 L85.9649,90.7332"/>
            <path d="M82.5098,83.6612 L83.8361,87.4105"/>
            <path d="M82.0595,79.6926 L82.5098,83.6612"/>
        </g>
        <g id="product-4d73e87c-4710-4024-afcf-9e42531dd790" class="IfcDoor material-null projection" ifc:name="Door" ifc:guid="1DS_XyHn109A$Fda9J7TUG">
            <path d="M146.519,214.007 L163.519,214.007"/>
            <path d="M146.519,213.307 L146.519,214.007"/>
            <path d="M163.519,213.307 L146.519,213.307"/>
            <path d="M163.519,214.007 L163.519,213.307"/>
            <path d="M164.519,197.507 L164.519,196.507"/>
            <path d="M164.019,197.507 L164.519,197.507"/>
            <path d="M164.019,197.007 L164.019,197.507"/>
            <path d="M163.519,197.007 L164.019,197.007"/>
            <path d="M163.519,196.507 L163.519,197.007"/>
            <path d="M164.519,213.507 L164.519,214.507"/>
            <path d="M164.019,213.507 L164.519,213.507"/>
            <path d="M164.019,214.007 L164.019,213.507"/>
            <path d="M163.519,214.007 L164.019,214.007"/>
            <path d="M163.519,214.507 L163.519,214.007"/>
            <path d="M146.845,210.127 L146.519,213.307"/>
            <path d="M147.813,207.069 L146.845,210.127"/>
            <path d="M149.765,203.726 L147.813,207.069"/>
            <path d="M152.478,200.912 L149.765,203.726"/>
            <path d="M155.801,198.783 L152.478,200.912"/>
            <path d="M159.55,197.457 L155.801,198.783"/>
            <path d="M163.519,197.007 L159.55,197.457"/>
        </g>
        <g id="product-f01831ea-075e-463e-ba53-7f06e585b782-body" class="IfcBuildingElementProxy material-null cut" ifc:name="BuildingElementProxy" ifc:guid="3m637g1rv6FhfJVmRbXRU2">
            <path d="M191.907,216.047 L191.798,216.337 L191.735,216.375 L191.514,216.534 L191.495,216.541 L191.224,216.501 L191.177,216.495 L191.083,216.344 L191.044,216.287 L190.983,216.178 L190.54,215.234 L190.477,215.082 L190.422,214.783 L190.41,214.756 L190.429,214.564 L190.202,213.707 L190.244,213.593 L190.449,213.397 L190.742,213.034 L191.217,212.974 L191.276,212.946 L191.438,212.864 L191.5,212.867 L191.675,212.948 L191.729,212.996 L191.745,213.013 L192.404,213.314 L192.454,213.394 L192.58,213.579 L192.618,213.685 L192.38,214.623 L192.394,214.756 L192.338,214.88 L192.313,215.013"/>
        </g>
        <g class="3jg8DFWmXBceNmfKsSt95f 3sARtet6X8lff$r_XMADMT 3Lirl$nkj3qwIEvpnDbPkm material-null IfcWall 1QOPYZaNbExBE$Y27CNLWo 2TtOnb1OT6Qh3ZvuiAt9q2 cut 0a9m4Uc9f7OQzW$jhciQQb 0X_j88FIz0vwOayK6_8dlr 2w2UuEqgD21Oo6WEXEPSkD 0Fv_zfsBb0iwsfU_Dq9gfg 3Dkw0JbXL3lv9Qh$ofJvsE 3PAvCo6oHB_RasWwIvv88P"><path d="M47.9,82.7 L47.9,225.3 L55.3,225.3 L83.1,225.3 L83.1,217.9 L55.3,217.9 L55.3,82.7 L60.5,82.7 L60.5,75.3 L47.9,75.3 Z"/></g><g class="3jg8DFWmXBceNmfKsSt95f 3sARtet6X8lff$r_XMADMT 3Lirl$nkj3qwIEvpnDbPkm material-null IfcWall 1QOPYZaNbExBE$Y27CNLWo 2TtOnb1OT6Qh3ZvuiAt9q2 cut 0a9m4Uc9f7OQzW$jhciQQb 0X_j88FIz0vwOayK6_8dlr 2w2UuEqgD21Oo6WEXEPSkD 0Fv_zfsBb0iwsfU_Dq9gfg 3Dkw0JbXL3lv9Qh$ofJvsE 3PAvCo6oHB_RasWwIvv88P"><path d="M81.6,82.7 L81.6,75.3 L72.5,75.3 L72.5,82.7 Z"/></g><g class="3jg8DFWmXBceNmfKsSt95f 3sARtet6X8lff$r_XMADMT 3Lirl$nkj3qwIEvpnDbPkm material-null IfcWall 1QOPYZaNbExBE$Y27CNLWo 2TtOnb1OT6Qh3ZvuiAt9q2 cut 0a9m4Uc9f7OQzW$jhciQQb 0X_j88FIz0vwOayK6_8dlr 2w2UuEqgD21Oo6WEXEPSkD 0Fv_zfsBb0iwsfU_Dq9gfg 3Dkw0JbXL3lv9Qh$ofJvsE 3PAvCo6oHB_RasWwIvv88P"><path d="M118.9,122.7 L141.9,122.7 L141.9,121.1 L140.9,121.1 L140.9,82.7 L144.7,82.7 L144.7,75.3 L134.4,75.3 L134.4,82.7 L139.3,82.7 L139.3,121.1 L120.5,121.1 L120.5,82.7 L122.4,82.7 L122.4,75.3 L99.6,75.3 L99.6,82.7 L118.9,82.7 L118.9,121.1 Z"/></g><g class="3jg8DFWmXBceNmfKsSt95f 3sARtet6X8lff$r_XMADMT 3Lirl$nkj3qwIEvpnDbPkm material-null IfcWall 1QOPYZaNbExBE$Y27CNLWo 2TtOnb1OT6Qh3ZvuiAt9q2 cut 0a9m4Uc9f7OQzW$jhciQQb 0X_j88FIz0vwOayK6_8dlr 2w2UuEqgD21Oo6WEXEPSkD 0Fv_zfsBb0iwsfU_Dq9gfg 3Dkw0JbXL3lv9Qh$ofJvsE 3PAvCo6oHB_RasWwIvv88P"><path d="M111.1,217.9 L111.1,225.3 L167.9,225.3 L167.9,217.9 L167.9,214.5 L160.5,214.5 L160.5,217.9 Z"/></g><g class="3jg8DFWmXBceNmfKsSt95f 3sARtet6X8lff$r_XMADMT 3Lirl$nkj3qwIEvpnDbPkm material-null IfcWall 1QOPYZaNbExBE$Y27CNLWo 2TtOnb1OT6Qh3ZvuiAt9q2 cut 0a9m4Uc9f7OQzW$jhciQQb 0X_j88FIz0vwOayK6_8dlr 2w2UuEqgD21Oo6WEXEPSkD 0Fv_zfsBb0iwsfU_Dq9gfg 3Dkw0JbXL3lv9Qh$ofJvsE 3PAvCo6oHB_RasWwIvv88P"><path d="M159.9,121.1 L159.9,122.7 L160.5,122.7 L160.5,124.8 L163.5,124.8 L163.5,82.7 L203.5,82.7 L203.5,75.3 L156.7,75.3 L156.7,82.7 L160.5,82.7 L160.5,121.1 Z"/></g><g class="3jg8DFWmXBceNmfKsSt95f 3sARtet6X8lff$r_XMADMT 3Lirl$nkj3qwIEvpnDbPkm material-null IfcWall 1QOPYZaNbExBE$Y27CNLWo 2TtOnb1OT6Qh3ZvuiAt9q2 cut 0a9m4Uc9f7OQzW$jhciQQb 0X_j88FIz0vwOayK6_8dlr 2w2UuEqgD21Oo6WEXEPSkD 0Fv_zfsBb0iwsfU_Dq9gfg 3Dkw0JbXL3lv9Qh$ofJvsE 3PAvCo6oHB_RasWwIvv88P"><path d="M244.5,82.7 L244.5,185.9 L223.9,185.9 L223.9,193.3 L251.9,193.3 L251.9,185.9 L251.9,82.7 L251.9,75.3 L231.5,75.3 L231.5,82.7 Z"/></g><g class="3jg8DFWmXBceNmfKsSt95f 3sARtet6X8lff$r_XMADMT 3Lirl$nkj3qwIEvpnDbPkm material-null IfcWall 1QOPYZaNbExBE$Y27CNLWo 2TtOnb1OT6Qh3ZvuiAt9q2 cut 0a9m4Uc9f7OQzW$jhciQQb 0X_j88FIz0vwOayK6_8dlr 2w2UuEqgD21Oo6WEXEPSkD 0Fv_zfsBb0iwsfU_Dq9gfg 3Dkw0JbXL3lv9Qh$ofJvsE 3PAvCo6oHB_RasWwIvv88P"><path d="M160.5,193.3 L160.5,196.5 L167.9,196.5 L167.9,193.3 L195.9,193.3 L195.9,185.9 L163.5,185.9 L163.5,165.9 L160.5,165.9 L160.5,185.9 Z"/></g></g>
</svg>